<svg id="svg" version="1.1" xmlns="http://www.w3.org/2000/svg" xmlns:xlink="http://www.w3.org/1999/xlink" width="40" height="40" viewBox="0, 0, 400,400"><g id="svgg"><path id="path0" d="M213.500 57.900 C 221.915 57.960,235.685 57.960,244.100 57.900 C 252.515 57.840,245.630 57.790,228.800 57.790 C 211.970 57.790,205.085 57.840,213.500 57.900 M210.500 190.276 C 210.885 190.376,211.515 190.376,211.900 190.276 C 212.285 190.175,211.970 190.093,211.200 190.093 C 210.430 190.093,210.115 190.175,210.500 190.276 M123.693 191.600 C 123.693 192.370,123.775 192.685,123.876 192.300 C 123.976 191.915,123.976 191.285,123.876 190.900 C 123.775 190.515,123.693 190.830,123.693 191.600 M141.200 224.757 C 141.200 224.953,140.750 225.226,140.200 225.364 C 139.650 225.502,139.200 225.792,139.200 226.008 C 139.200 226.223,138.949 226.400,138.643 226.400 C 138.336 226.400,137.982 226.670,137.855 227.000 C 137.729 227.330,137.349 227.600,137.013 227.600 C 136.676 227.600,136.400 227.780,136.400 228.000 C 136.400 228.220,136.196 228.400,135.947 228.400 C 135.697 228.400,135.112 228.814,134.647 229.320 C 134.181 229.826,133.080 230.768,132.200 231.413 C 130.064 232.979,128.400 234.707,128.400 235.358 C 128.400 235.649,127.950 236.226,127.400 236.639 C 126.850 237.052,126.400 237.617,126.400 237.895 C 126.400 238.173,126.240 238.400,126.043 238.400 C 125.847 238.400,125.574 238.850,125.436 239.400 C 125.298 239.950,125.008 240.400,124.792 240.400 C 124.577 240.400,124.400 240.655,124.400 240.968 C 124.400 241.635,123.135 244.140,122.700 244.333 C 122.535 244.407,122.400 244.801,122.400 245.210 C 122.400 245.618,122.220 246.064,122.000 246.200 C 121.780 246.336,121.600 246.874,121.600 247.395 C 121.600 247.916,121.330 248.613,121.000 248.943 C 120.642 249.301,120.400 250.279,120.400 251.371 C 120.400 252.377,120.220 253.200,120.000 253.200 C 119.765 253.200,119.600 254.575,119.600 256.524 C 119.600 258.827,119.420 260.086,119.013 260.624 C 118.219 261.673,118.210 264.642,119.000 264.945 C 119.475 265.127,119.600 265.968,119.600 268.987 C 119.600 271.262,119.761 272.800,120.000 272.800 C 120.220 272.800,120.406 273.565,120.413 274.500 C 120.420 275.435,120.690 276.549,121.013 276.976 C 121.336 277.404,121.600 278.169,121.600 278.676 C 121.600 279.184,121.780 279.600,122.000 279.600 C 122.220 279.600,122.400 279.970,122.400 280.423 C 122.400 280.876,122.850 282.052,123.400 283.037 C 123.950 284.022,124.400 285.092,124.400 285.414 C 124.400 285.736,124.580 286.000,124.800 286.000 C 125.020 286.000,125.200 286.276,125.200 286.613 C 125.200 286.949,125.470 287.329,125.800 287.455 C 126.130 287.582,126.400 288.045,126.400 288.485 C 126.400 288.925,126.850 289.639,127.400 290.071 C 127.950 290.504,128.400 291.033,128.400 291.246 C 128.400 291.691,128.810 292.220,130.900 294.477 C 131.725 295.368,132.400 296.255,132.400 296.448 C 132.400 296.642,132.535 296.800,132.700 296.801 C 132.865 296.801,134.141 297.881,135.536 299.201 C 136.931 300.520,138.260 301.600,138.490 301.600 C 138.720 301.600,139.325 302.050,139.835 302.600 C 140.345 303.150,141.130 303.600,141.581 303.600 C 142.042 303.600,142.400 303.862,142.400 304.200 C 142.400 304.530,142.535 304.800,142.700 304.800 C 142.865 304.801,143.523 305.251,144.162 305.800 C 144.801 306.350,145.485 306.800,145.680 306.800 C 145.876 306.800,146.486 307.250,147.036 307.800 C 147.586 308.350,148.298 308.800,148.618 308.800 C 148.938 308.800,149.200 308.980,149.200 309.200 C 149.200 309.420,149.455 309.600,149.767 309.600 C 150.078 309.600,150.393 309.766,150.467 309.970 C 150.540 310.173,150.861 310.398,151.180 310.470 C 151.499 310.541,152.459 311.275,153.312 312.100 C 154.165 312.925,155.119 313.600,155.432 313.600 C 155.744 313.600,156.000 313.780,156.000 314.000 C 156.000 314.220,156.276 314.400,156.613 314.400 C 156.949 314.400,157.329 314.670,157.455 315.000 C 157.582 315.330,157.961 315.600,158.297 315.600 C 158.633 315.600,159.325 316.050,159.835 316.600 C 160.345 317.150,160.995 317.602,161.281 317.603 C 161.566 317.605,162.463 318.235,163.273 319.003 C 164.084 319.772,164.911 320.400,165.111 320.400 C 165.312 320.400,165.999 320.851,166.638 321.402 C 167.277 321.954,168.115 322.506,168.500 322.629 C 168.885 322.753,169.200 323.022,169.200 323.227 C 169.200 323.432,169.455 323.600,169.767 323.600 C 170.078 323.600,170.393 323.766,170.467 323.970 C 170.540 324.173,170.855 324.398,171.167 324.470 C 171.478 324.541,172.423 325.275,173.267 326.100 C 174.110 326.925,175.039 327.600,175.330 327.600 C 175.622 327.600,176.283 328.050,176.800 328.600 C 177.317 329.150,177.935 329.600,178.174 329.600 C 178.413 329.600,179.093 330.050,179.687 330.600 C 180.280 331.150,180.945 331.600,181.164 331.600 C 181.384 331.600,182.014 332.050,182.564 332.600 C 183.114 333.150,183.752 333.600,183.982 333.600 C 184.212 333.600,184.400 333.780,184.400 334.000 C 184.400 334.220,184.599 334.400,184.842 334.400 C 185.086 334.400,185.967 334.940,186.800 335.600 C 187.633 336.260,188.514 336.800,188.758 336.800 C 189.001 336.800,189.200 336.980,189.200 337.200 C 189.200 337.420,189.451 337.600,189.757 337.600 C 190.064 337.600,190.418 337.870,190.545 338.200 C 190.671 338.530,191.051 338.800,191.387 338.800 C 191.724 338.800,192.000 338.980,192.000 339.200 C 192.000 339.420,192.270 339.600,192.600 339.600 C 192.930 339.600,193.200 339.780,193.200 340.000 C 193.200 340.220,193.637 340.400,194.171 340.400 C 194.706 340.400,195.413 340.670,195.743 341.000 C 196.436 341.693,204.800 341.894,204.800 341.218 C 204.800 341.008,205.430 340.718,206.200 340.574 C 206.970 340.429,207.600 340.151,207.600 339.955 C 207.600 339.760,207.842 339.600,208.139 339.600 C 208.435 339.600,209.050 339.285,209.505 338.900 C 209.960 338.515,210.689 337.903,211.124 337.541 C 211.559 337.178,212.294 336.761,212.757 336.614 C 213.221 336.466,213.600 336.178,213.600 335.973 C 213.600 335.768,213.793 335.600,214.029 335.600 C 214.264 335.600,214.708 335.375,215.015 335.100 C 216.318 333.931,216.787 333.600,217.140 333.600 C 217.346 333.600,217.603 333.369,217.711 333.086 C 217.820 332.804,218.729 332.151,219.731 331.635 C 220.733 331.120,221.648 330.451,221.764 330.149 C 221.880 329.847,222.259 329.600,222.607 329.600 C 222.954 329.600,223.635 329.189,224.119 328.686 C 224.604 328.184,226.440 326.811,228.200 325.634 C 229.960 324.458,231.460 323.339,231.533 323.148 C 231.607 322.957,231.897 322.800,232.179 322.800 C 232.461 322.800,233.301 322.267,234.046 321.616 C 234.791 320.964,235.850 320.199,236.400 319.916 C 236.950 319.633,237.544 319.176,237.720 318.901 C 237.896 318.625,238.301 318.400,238.620 318.400 C 238.939 318.400,239.200 318.220,239.200 318.000 C 239.200 317.780,239.388 317.600,239.617 317.600 C 239.847 317.600,240.520 317.150,241.113 316.600 C 241.707 316.050,242.443 315.600,242.750 315.600 C 243.057 315.600,243.725 315.150,244.235 314.600 C 244.745 314.050,245.350 313.600,245.581 313.600 C 245.811 313.600,246.000 313.420,246.000 313.200 C 246.000 312.980,246.276 312.800,246.613 312.800 C 246.949 312.800,247.329 312.530,247.455 312.200 C 247.582 311.870,247.858 311.600,248.069 311.600 C 248.503 311.600,251.328 309.561,251.533 309.100 C 251.607 308.935,251.909 308.800,252.205 308.800 C 252.501 308.800,252.981 308.575,253.271 308.300 C 254.383 307.248,256.765 305.600,257.173 305.600 C 257.408 305.600,257.600 305.453,257.600 305.274 C 257.600 305.094,258.275 304.561,259.100 304.089 C 259.925 303.618,261.175 302.684,261.878 302.016 C 262.581 301.347,263.328 300.800,263.537 300.800 C 264.172 300.800,271.600 293.344,271.600 292.707 C 271.600 292.380,272.050 291.774,272.600 291.361 C 273.150 290.948,273.600 290.383,273.600 290.105 C 273.600 289.827,273.743 289.600,273.918 289.600 C 274.240 289.600,276.934 284.431,278.243 281.300 C 278.634 280.365,279.099 279.600,279.277 279.600 C 279.455 279.600,279.600 278.970,279.600 278.200 C 279.600 277.430,279.780 276.800,280.000 276.800 C 280.220 276.800,280.400 276.114,280.400 275.276 C 280.400 274.439,280.664 273.404,280.987 272.976 C 281.411 272.416,281.578 271.079,281.587 268.180 C 281.596 265.557,281.770 263.990,282.090 263.670 C 282.477 263.283,282.477 263.015,282.090 262.395 C 281.788 261.911,281.600 260.066,281.600 257.577 C 281.600 254.524,281.454 253.397,281.000 252.943 C 280.670 252.613,280.400 251.736,280.400 250.995 C 280.400 250.254,280.220 249.536,280.000 249.400 C 279.780 249.264,279.600 248.533,279.600 247.776 C 279.600 247.019,279.444 246.400,279.254 246.400 C 279.064 246.400,278.586 245.545,278.192 244.500 C 277.798 243.455,277.234 242.456,276.938 242.280 C 276.642 242.104,276.400 241.609,276.400 241.180 C 276.400 240.751,276.220 240.400,276.000 240.400 C 275.780 240.400,275.600 240.208,275.600 239.973 C 275.600 238.965,265.825 228.400,264.892 228.400 C 264.727 228.400,264.107 227.950,263.513 227.400 C 262.920 226.850,262.247 226.400,262.017 226.400 C 261.788 226.400,261.600 226.261,261.600 226.091 C 261.600 225.921,260.961 225.438,260.181 225.018 L 258.762 224.253 257.492 225.523 C 256.234 226.782,256.229 226.802,256.912 227.958 C 257.290 228.599,257.600 229.760,257.600 230.538 C 257.600 231.316,257.780 232.064,258.000 232.200 C 258.912 232.764,258.473 240.700,257.439 242.338 C 256.104 244.454,254.078 246.400,253.212 246.400 C 252.812 246.400,252.382 246.670,252.255 247.000 C 252.072 247.478,251.209 247.600,248.000 247.600 C 244.791 247.600,243.928 247.478,243.745 247.000 C 243.618 246.670,243.084 246.400,242.557 246.400 C 242.031 246.400,241.600 246.223,241.600 246.008 C 241.600 245.792,241.150 245.502,240.600 245.364 C 240.050 245.226,239.600 244.953,239.600 244.757 C 239.600 244.560,239.266 244.400,238.858 244.400 C 238.451 244.400,237.631 243.950,237.038 243.400 C 236.444 242.850,235.803 242.400,235.612 242.400 C 235.065 242.400,232.805 241.033,232.803 240.700 C 232.801 240.535,232.466 240.400,232.058 240.400 C 231.651 240.400,230.831 239.950,230.238 239.400 C 229.644 238.850,228.808 238.400,228.379 238.400 C 227.951 238.400,227.600 238.232,227.600 238.027 C 227.600 237.822,227.195 237.528,226.700 237.373 C 226.205 237.219,225.710 236.981,225.600 236.846 C 225.490 236.711,224.725 236.257,223.900 235.837 C 223.075 235.417,222.400 234.922,222.400 234.737 C 222.400 234.552,222.126 234.400,221.792 234.400 C 221.458 234.400,220.471 233.950,219.600 233.400 C 218.729 232.850,217.753 232.400,217.432 232.400 C 217.110 232.400,216.736 232.220,216.600 232.000 C 216.464 231.780,215.926 231.600,215.405 231.600 C 214.884 231.600,214.209 231.352,213.907 231.049 C 213.327 230.470,211.723 230.160,206.832 229.682 C 205.053 229.508,203.798 229.193,203.699 228.896 C 203.440 228.120,197.357 228.215,197.055 229.000 C 196.881 229.454,196.146 229.600,194.036 229.600 C 192.502 229.600,191.136 229.780,191.000 230.000 C 190.864 230.220,190.063 230.400,189.219 230.400 C 188.225 230.400,187.605 230.611,187.455 231.000 C 187.311 231.377,186.699 231.600,185.813 231.600 C 185.036 231.600,184.400 231.780,184.400 232.000 C 184.400 232.220,183.969 232.400,183.443 232.400 C 182.916 232.400,182.382 232.670,182.255 233.000 C 182.129 233.330,181.659 233.600,181.213 233.600 C 180.766 233.600,180.400 233.780,180.400 234.000 C 180.400 234.220,180.031 234.400,179.581 234.400 C 179.130 234.400,178.345 234.850,177.835 235.400 C 177.325 235.950,176.524 236.400,176.054 236.400 C 175.584 236.400,175.200 236.577,175.200 236.792 C 175.200 237.008,174.750 237.298,174.200 237.436 C 173.650 237.574,173.200 237.847,173.200 238.043 C 173.200 238.240,172.840 238.400,172.400 238.400 C 171.960 238.400,171.600 238.572,171.600 238.781 C 171.600 238.991,170.925 239.477,170.100 239.860 C 169.275 240.244,168.479 240.735,168.332 240.951 C 168.185 241.167,167.738 241.392,167.339 241.450 C 166.941 241.509,166.551 241.746,166.474 241.978 C 166.397 242.210,165.898 242.400,165.367 242.400 C 164.835 242.400,164.400 242.636,164.400 242.925 C 164.400 243.214,163.761 243.701,162.981 244.008 C 162.200 244.314,161.368 244.797,161.132 245.082 C 160.895 245.367,160.364 245.600,159.951 245.600 C 159.538 245.600,159.200 245.780,159.200 246.000 C 159.200 246.220,158.862 246.400,158.449 246.400 C 158.036 246.400,157.467 246.678,157.185 247.019 C 156.479 247.868,148.800 247.806,148.800 246.951 C 148.800 246.648,148.426 246.400,147.968 246.400 C 146.991 246.400,143.600 243.155,143.600 242.219 C 143.600 241.865,143.330 241.471,143.000 241.345 C 142.518 241.160,142.400 240.264,142.400 236.786 C 142.400 233.471,142.541 232.317,143.000 231.857 C 143.334 231.523,143.600 230.545,143.600 229.652 C 143.600 228.769,143.780 227.936,144.000 227.800 C 144.688 227.375,144.439 226.176,143.474 225.270 C 142.543 224.395,141.200 224.092,141.200 224.757 " stroke="none" fill="#848484" fill-rule="evenodd"></path><path id="path1" d="M197.400 56.000 C 197.264 56.220,196.568 56.400,195.853 56.400 C 195.138 56.400,194.204 56.664,193.776 56.987 C 193.349 57.310,192.700 57.580,192.333 57.587 C 191.967 57.594,191.607 57.736,191.533 57.903 C 191.460 58.070,190.590 58.831,189.600 59.594 C 187.453 61.250,185.615 63.218,185.606 63.871 C 185.603 64.130,185.150 64.696,184.600 65.129 C 184.050 65.561,183.600 66.184,183.600 66.512 C 183.600 66.840,183.150 67.403,182.600 67.763 C 182.050 68.124,181.600 68.657,181.600 68.948 C 181.600 69.239,180.995 70.100,180.255 70.862 C 179.515 71.624,178.615 72.868,178.255 73.628 C 177.895 74.387,177.150 75.494,176.600 76.087 C 176.050 76.680,175.600 77.310,175.600 77.487 C 175.600 77.663,175.150 78.293,174.600 78.887 C 174.050 79.480,173.600 80.071,173.600 80.200 C 173.600 80.329,173.150 80.920,172.600 81.513 C 172.050 82.107,171.600 82.877,171.600 83.226 C 171.600 83.575,171.150 84.283,170.600 84.800 C 170.050 85.317,169.600 85.963,169.600 86.236 C 169.600 86.510,169.459 86.793,169.287 86.867 C 168.871 87.044,165.600 91.993,165.600 92.446 C 165.600 92.641,165.441 92.800,165.248 92.800 C 165.054 92.800,164.392 93.794,163.778 95.009 C 163.163 96.224,162.421 97.416,162.130 97.658 C 161.838 97.900,161.600 98.268,161.600 98.476 C 161.600 98.683,161.150 99.443,160.600 100.164 C 160.050 100.886,159.600 101.691,159.600 101.954 C 159.600 102.218,159.231 102.830,158.779 103.314 C 158.328 103.799,157.570 105.006,157.095 105.998 C 156.620 106.989,155.639 108.634,154.916 109.654 C 154.192 110.673,153.600 111.894,153.600 112.366 C 153.600 112.839,153.320 113.333,152.977 113.464 C 152.634 113.596,151.455 115.525,150.355 117.752 C 148.338 121.838,147.581 123.234,147.182 123.600 C 147.062 123.710,146.417 124.880,145.749 126.200 C 145.081 127.520,144.343 128.960,144.108 129.400 C 142.963 131.548,141.600 134.516,141.600 134.864 C 141.600 135.078,141.150 135.843,140.600 136.564 C 140.050 137.286,139.600 138.111,139.600 138.399 C 139.600 138.902,138.621 141.152,136.563 145.379 C 136.033 146.467,135.600 147.684,135.600 148.084 C 135.600 148.484,135.429 149.123,135.219 149.505 C 134.861 150.159,134.266 151.537,132.933 154.800 C 132.619 155.570,132.190 156.513,131.981 156.895 C 131.771 157.277,131.600 157.864,131.600 158.200 C 131.600 158.536,131.446 159.123,131.259 159.505 C 131.071 159.887,130.641 160.830,130.302 161.600 C 129.964 162.370,129.397 163.657,129.043 164.460 C 128.689 165.264,128.400 166.301,128.400 166.765 C 128.400 167.229,128.062 168.372,127.649 169.304 C 126.368 172.198,125.600 174.583,125.600 175.668 C 125.600 176.240,125.331 177.224,125.002 177.854 C 124.674 178.484,124.404 179.484,124.402 180.076 C 124.401 180.668,124.220 181.264,124.000 181.400 C 123.780 181.536,123.600 182.357,123.600 183.224 C 123.600 184.091,123.440 184.800,123.244 184.800 C 122.878 184.800,122.804 185.117,121.886 190.600 C 121.591 192.360,121.231 194.070,121.084 194.400 C 120.608 195.475,119.917 199.733,119.722 202.800 C 119.617 204.450,119.339 206.031,119.105 206.314 C 118.801 206.680,118.827 207.138,119.196 207.914 C 119.480 208.511,120.002 209.614,120.356 210.365 C 122.457 214.818,128.231 216.061,132.446 212.966 C 133.521 212.177,134.400 211.382,134.400 211.199 C 134.400 211.015,135.075 210.461,135.900 209.968 C 136.725 209.474,137.760 208.756,138.200 208.372 C 138.640 207.988,139.765 207.279,140.700 206.797 C 141.635 206.314,142.400 205.778,142.400 205.606 C 142.400 205.434,142.715 205.193,143.100 205.071 C 143.485 204.949,144.250 204.592,144.800 204.278 C 147.614 202.672,152.706 200.394,153.476 200.397 C 153.958 200.399,154.464 200.220,154.600 200.000 C 154.736 199.780,155.184 199.600,155.595 199.600 C 156.006 199.600,156.613 199.330,156.943 199.000 C 157.273 198.670,157.871 198.394,158.271 198.386 C 158.672 198.378,159.450 198.114,160.000 197.800 C 160.550 197.486,161.495 197.222,162.100 197.214 C 162.705 197.206,163.200 197.020,163.200 196.800 C 163.200 196.580,163.988 196.400,164.951 196.400 C 165.914 196.400,167.349 196.130,168.138 195.800 C 168.928 195.470,170.174 195.200,170.907 195.200 C 171.640 195.200,172.411 195.036,172.620 194.835 C 173.001 194.470,174.599 194.262,181.494 193.683 C 183.525 193.512,185.406 193.154,185.674 192.886 C 186.457 192.103,214.731 192.222,215.776 193.013 C 216.304 193.412,217.546 193.600,219.653 193.600 C 221.358 193.600,222.864 193.780,223.000 194.000 C 223.136 194.220,224.306 194.400,225.600 194.400 C 226.894 194.400,228.048 194.554,228.165 194.743 C 228.281 194.931,229.397 195.191,230.645 195.320 C 231.893 195.449,233.104 195.744,233.337 195.977 C 233.570 196.210,234.523 196.400,235.456 196.400 C 236.389 196.400,237.264 196.580,237.400 196.800 C 237.536 197.020,238.042 197.201,238.524 197.202 C 239.006 197.204,239.916 197.474,240.546 197.802 C 241.176 198.131,241.943 198.400,242.251 198.400 C 242.559 198.400,243.123 198.558,243.505 198.751 C 245.360 199.689,247.304 200.400,248.014 200.400 C 248.446 200.400,248.800 200.580,248.800 200.800 C 248.800 201.020,249.087 201.200,249.438 201.200 C 249.998 201.200,251.090 201.678,253.200 202.846 C 253.530 203.028,254.430 203.488,255.200 203.868 C 255.970 204.248,256.698 204.698,256.817 204.869 C 257.032 205.175,259.365 206.532,261.914 207.834 C 262.636 208.202,263.399 208.825,263.609 209.216 C 263.818 209.608,264.667 210.344,265.495 210.852 C 266.323 211.360,267.613 212.366,268.361 213.088 C 271.261 215.883,277.065 214.926,279.799 211.201 C 281.235 209.245,281.942 202.527,280.832 201.380 C 280.630 201.171,280.383 199.830,280.282 198.400 C 280.080 195.525,279.312 192.009,278.758 191.420 C 278.561 191.211,278.395 190.221,278.389 189.220 C 278.379 187.400,277.205 182.272,276.679 181.746 C 276.526 181.592,276.400 181.057,276.400 180.557 C 276.400 180.057,276.220 179.536,276.000 179.400 C 275.780 179.264,275.600 178.568,275.600 177.853 C 275.600 177.138,275.336 176.204,275.013 175.776 C 274.690 175.349,274.420 174.526,274.413 173.946 C 274.406 173.366,274.131 172.376,273.802 171.746 C 273.474 171.116,273.204 170.193,273.202 169.695 C 273.201 169.197,273.020 168.432,272.800 167.995 C 272.580 167.558,272.220 166.842,272.000 166.405 C 271.780 165.968,271.600 165.231,271.600 164.766 C 271.600 164.301,271.330 163.309,271.000 162.560 C 270.670 161.812,270.121 160.525,269.781 159.700 C 269.440 158.875,268.990 157.887,268.781 157.505 C 268.571 157.123,268.398 156.403,268.395 155.905 C 268.393 155.407,267.943 154.217,267.395 153.259 C 266.848 152.302,266.400 151.218,266.400 150.852 C 266.400 150.486,265.950 149.523,265.400 148.714 C 264.850 147.905,264.400 146.933,264.400 146.556 C 264.400 145.641,263.132 142.800,262.723 142.800 C 262.545 142.800,262.400 142.590,262.400 142.334 C 262.400 141.588,261.077 138.800,260.723 138.800 C 260.545 138.800,260.402 138.395,260.404 137.900 C 260.407 137.029,254.970 125.844,252.965 122.600 C 252.422 121.720,251.785 120.505,251.549 119.900 C 251.314 119.295,250.959 118.800,250.761 118.800 C 250.562 118.800,250.400 118.590,250.400 118.334 C 250.400 117.588,249.077 114.800,248.723 114.800 C 248.545 114.800,248.400 114.608,248.400 114.373 C 248.400 114.139,247.950 113.357,247.400 112.636 C 246.850 111.914,246.400 111.049,246.400 110.711 C 246.400 110.374,246.153 109.893,245.852 109.643 C 245.551 109.393,244.745 108.066,244.062 106.694 C 243.379 105.322,242.457 103.660,242.013 103.000 C 241.127 101.684,240.946 100.400,241.646 100.400 C 242.096 100.400,254.400 88.227,254.400 87.782 C 254.400 87.424,255.494 86.400,255.877 86.400 C 256.502 86.400,267.447 75.004,267.978 73.800 C 270.333 68.459,270.274 65.968,267.675 61.000 C 266.496 58.748,263.325 56.400,261.463 56.400 C 261.124 56.400,260.736 56.220,260.600 56.000 C 260.439 55.739,249.470 55.600,229.000 55.600 C 208.530 55.600,197.561 55.739,197.400 56.000 M261.600 58.200 C 261.874 58.530,262.254 58.800,262.444 58.800 C 263.214 58.800,266.400 61.911,266.400 62.663 C 266.400 62.921,266.545 63.193,266.722 63.267 C 267.476 63.578,268.305 68.564,267.740 69.389 C 267.443 69.823,267.200 70.588,267.200 71.089 C 267.200 71.590,267.033 72.000,266.829 72.000 C 266.625 72.000,266.400 72.270,266.329 72.600 C 266.258 72.930,259.929 79.484,252.264 87.163 L 238.329 101.127 239.664 103.287 C 240.399 104.475,241.230 105.796,241.512 106.223 C 241.793 106.651,242.129 107.315,242.258 107.700 C 242.388 108.085,242.652 108.400,242.847 108.400 C 243.041 108.400,243.200 108.584,243.200 108.808 C 243.200 109.032,243.650 109.929,244.200 110.800 C 244.750 111.671,245.200 112.638,245.200 112.949 C 245.200 113.260,245.470 113.618,245.800 113.745 C 246.130 113.871,246.400 114.251,246.400 114.587 C 246.400 114.924,246.580 115.200,246.800 115.200 C 247.020 115.200,247.200 115.538,247.200 115.951 C 247.200 116.364,247.470 116.926,247.800 117.200 C 248.130 117.474,248.400 117.946,248.400 118.249 C 248.400 118.552,248.580 118.800,248.800 118.800 C 249.020 118.800,249.200 119.138,249.200 119.551 C 249.200 119.964,249.470 120.526,249.800 120.800 C 250.130 121.074,250.400 121.636,250.400 122.049 C 250.400 122.462,250.540 122.800,250.710 122.800 C 250.881 122.800,251.376 123.608,251.810 124.596 C 252.245 125.584,252.735 126.394,252.900 126.396 C 253.065 126.398,253.200 126.760,253.200 127.200 C 253.200 127.640,253.345 128.000,253.523 128.000 C 253.701 128.000,254.161 128.765,254.546 129.700 C 254.932 130.635,255.411 131.670,255.612 132.000 C 255.813 132.330,256.269 133.230,256.625 134.000 C 256.981 134.770,257.526 135.878,257.836 136.462 C 258.146 137.046,258.400 137.811,258.400 138.162 C 258.400 138.513,258.580 138.800,258.800 138.800 C 259.020 138.800,259.200 139.138,259.200 139.551 C 259.200 139.964,259.470 140.526,259.800 140.800 C 260.130 141.074,260.400 141.636,260.400 142.049 C 260.400 142.462,260.580 142.800,260.800 142.800 C 261.020 142.800,261.200 143.228,261.200 143.751 C 261.200 144.274,261.470 144.926,261.800 145.200 C 262.130 145.474,262.400 146.025,262.400 146.425 C 262.400 146.825,262.580 147.264,262.800 147.400 C 263.020 147.536,263.200 148.067,263.200 148.581 C 263.200 149.094,263.470 149.618,263.800 149.745 C 264.130 149.871,264.400 150.420,264.400 150.964 C 264.400 151.508,264.580 152.064,264.800 152.200 C 265.020 152.336,265.200 152.865,265.200 153.375 C 265.200 153.885,265.470 154.526,265.800 154.800 C 266.130 155.074,266.400 155.726,266.400 156.249 C 266.400 156.772,266.580 157.200,266.800 157.200 C 267.020 157.200,267.200 157.718,267.200 158.351 C 267.200 158.984,267.470 159.726,267.800 160.000 C 268.130 160.274,268.400 161.016,268.400 161.649 C 268.400 162.282,268.580 162.800,268.800 162.800 C 269.020 162.800,269.200 163.318,269.200 163.951 C 269.200 164.584,269.470 165.326,269.800 165.600 C 270.130 165.874,270.400 166.616,270.400 167.249 C 270.400 167.882,270.580 168.400,270.800 168.400 C 271.020 168.400,271.200 168.906,271.200 169.524 C 271.200 170.141,271.464 170.996,271.787 171.424 C 272.110 171.851,272.380 172.774,272.387 173.476 C 272.394 174.178,272.580 174.864,272.800 175.000 C 273.020 175.136,273.200 175.742,273.200 176.347 C 273.200 176.952,273.464 177.796,273.787 178.224 C 274.110 178.651,274.380 179.675,274.387 180.500 C 274.394 181.325,274.580 182.000,274.800 182.000 C 275.020 182.000,275.206 182.675,275.214 183.500 C 275.222 184.325,275.486 185.450,275.800 186.000 C 276.114 186.550,276.378 187.765,276.386 188.700 C 276.394 189.635,276.580 190.400,276.800 190.400 C 277.020 190.400,277.200 191.188,277.200 192.151 C 277.200 193.114,277.470 194.549,277.800 195.338 C 278.130 196.128,278.400 197.734,278.400 198.907 C 278.400 200.080,278.580 201.220,278.800 201.440 C 279.439 202.079,279.356 208.427,278.693 209.695 C 277.960 211.096,276.306 212.400,275.261 212.400 C 274.813 212.400,274.336 212.580,274.200 212.800 C 274.064 213.020,273.603 213.200,273.176 213.200 C 272.749 213.200,272.400 213.020,272.400 212.800 C 272.400 212.580,271.993 212.400,271.496 212.400 C 270.999 212.400,270.144 211.993,269.596 211.496 C 269.048 210.999,267.790 209.965,266.800 209.199 C 265.810 208.433,264.940 207.670,264.867 207.503 C 264.793 207.336,264.560 207.200,264.349 207.200 C 264.138 207.200,263.480 206.750,262.887 206.200 C 262.293 205.650,261.581 205.200,261.304 205.200 C 261.027 205.200,260.800 205.020,260.800 204.800 C 260.800 204.580,260.543 204.400,260.229 204.400 C 259.914 204.400,259.419 204.168,259.129 203.885 C 258.838 203.601,257.933 203.057,257.117 202.674 C 256.301 202.292,255.526 201.803,255.393 201.589 C 255.261 201.375,254.803 201.200,254.376 201.200 C 253.949 201.200,253.600 201.020,253.600 200.800 C 253.600 200.580,253.262 200.400,252.849 200.400 C 252.436 200.400,251.874 200.130,251.600 199.800 C 251.326 199.470,250.674 199.200,250.151 199.200 C 249.628 199.200,249.200 199.020,249.200 198.800 C 249.200 198.580,248.874 198.400,248.476 198.400 C 248.079 198.400,247.404 198.136,246.976 197.813 C 246.549 197.490,245.705 197.220,245.100 197.213 C 244.495 197.206,244.000 197.020,244.000 196.800 C 244.000 196.580,243.392 196.400,242.649 196.400 C 241.906 196.400,241.074 196.130,240.800 195.800 C 240.526 195.470,239.795 195.200,239.175 195.200 C 238.555 195.200,237.936 195.020,237.800 194.800 C 237.664 194.580,236.978 194.394,236.276 194.386 C 235.574 194.378,234.550 194.114,234.000 193.800 C 233.450 193.486,232.156 193.222,231.124 193.214 C 230.092 193.206,229.136 193.020,229.000 192.800 C 228.864 192.580,227.998 192.398,227.076 192.395 C 226.154 192.393,224.410 192.125,223.200 191.800 C 221.990 191.475,219.436 191.207,217.524 191.205 C 215.612 191.202,213.953 191.048,213.839 190.863 C 213.508 190.327,199.167 190.031,192.800 190.428 C 183.264 191.024,178.293 191.490,176.600 191.948 C 175.720 192.186,174.246 192.385,173.324 192.390 C 172.402 192.396,171.536 192.580,171.400 192.800 C 171.264 193.020,170.364 193.200,169.400 193.200 C 168.436 193.200,167.546 193.363,167.423 193.563 C 167.300 193.762,166.300 194.049,165.200 194.200 C 164.100 194.351,163.100 194.638,162.977 194.837 C 162.854 195.037,162.155 195.200,161.425 195.200 C 160.695 195.200,159.874 195.470,159.600 195.800 C 159.326 196.130,158.595 196.400,157.975 196.400 C 157.355 196.400,156.736 196.580,156.600 196.800 C 156.464 197.020,156.018 197.200,155.609 197.200 C 155.200 197.200,154.265 197.500,153.532 197.868 C 151.120 199.077,150.816 199.200,150.254 199.200 C 149.948 199.200,149.474 199.470,149.200 199.800 C 148.926 200.130,148.364 200.400,147.951 200.400 C 147.538 200.400,147.200 200.580,147.200 200.800 C 147.200 201.020,146.862 201.200,146.449 201.200 C 146.036 201.200,145.474 201.470,145.200 201.800 C 144.926 202.130,144.364 202.400,143.951 202.400 C 143.538 202.400,143.200 202.559,143.200 202.753 C 143.200 202.948,142.885 203.226,142.500 203.371 C 141.185 203.867,140.000 204.589,140.000 204.895 C 140.000 205.063,139.773 205.200,139.496 205.200 C 139.219 205.200,138.507 205.650,137.913 206.200 C 137.320 206.750,136.690 207.200,136.513 207.200 C 136.337 207.200,135.707 207.650,135.113 208.200 C 134.520 208.750,133.950 209.200,133.846 209.200 C 133.742 209.200,132.996 209.824,132.187 210.586 C 131.379 211.349,130.331 212.080,129.859 212.211 C 129.386 212.343,128.591 212.651,128.092 212.897 C 127.413 213.231,127.065 213.225,126.712 212.872 C 126.452 212.612,125.871 212.399,125.420 212.398 C 124.969 212.397,123.925 211.776,123.100 211.018 L 121.600 209.641 121.600 205.208 C 121.600 202.172,121.789 200.322,122.200 199.338 C 122.530 198.549,122.800 197.035,122.800 195.975 C 122.800 194.915,122.980 193.936,123.200 193.800 C 123.420 193.664,123.606 192.708,123.614 191.676 C 123.622 190.644,123.886 189.350,124.200 188.800 C 124.514 188.250,124.778 187.136,124.786 186.324 C 124.794 185.512,124.980 184.736,125.200 184.600 C 125.420 184.464,125.600 183.665,125.600 182.825 C 125.600 181.956,125.858 181.084,126.200 180.800 C 126.545 180.514,126.800 179.642,126.800 178.751 C 126.800 177.898,126.980 177.200,127.200 177.200 C 127.420 177.200,127.600 176.604,127.600 175.876 C 127.600 175.149,127.864 174.204,128.187 173.776 C 128.510 173.349,128.780 172.516,128.787 171.924 C 128.794 171.332,128.980 170.736,129.200 170.600 C 129.420 170.464,129.600 169.948,129.600 169.453 C 129.600 168.958,129.864 168.204,130.187 167.776 C 130.510 167.349,130.780 166.516,130.787 165.924 C 130.794 165.332,130.980 164.736,131.200 164.600 C 131.420 164.464,131.600 163.901,131.600 163.348 C 131.600 162.795,131.870 162.073,132.200 161.743 C 132.530 161.413,132.800 160.706,132.800 160.171 C 132.800 159.637,132.980 159.200,133.200 159.200 C 133.420 159.200,133.600 158.682,133.600 158.049 C 133.600 157.416,133.870 156.674,134.200 156.400 C 134.530 156.126,134.800 155.474,134.800 154.951 C 134.800 154.428,134.980 154.000,135.200 154.000 C 135.420 154.000,135.600 153.479,135.600 152.843 C 135.600 152.183,135.858 151.587,136.200 151.455 C 136.530 151.329,136.800 150.857,136.800 150.407 C 136.800 149.957,136.967 149.277,137.171 148.895 C 137.375 148.513,137.644 147.930,137.768 147.600 C 137.893 147.270,138.148 146.730,138.335 146.400 C 139.235 144.814,139.600 143.964,139.600 143.454 C 139.600 143.148,139.870 142.674,140.200 142.400 C 140.530 142.126,140.800 141.474,140.800 140.951 C 140.800 140.428,140.980 140.000,141.200 140.000 C 141.420 140.000,141.600 139.662,141.600 139.249 C 141.600 138.836,141.870 138.274,142.200 138.000 C 142.530 137.726,142.800 137.164,142.800 136.751 C 142.800 136.338,142.980 136.000,143.200 136.000 C 143.420 136.000,143.600 135.653,143.600 135.229 C 143.600 134.804,143.870 134.187,144.200 133.857 C 144.530 133.527,144.800 132.985,144.800 132.652 C 144.800 132.319,144.980 131.936,145.200 131.800 C 145.420 131.664,145.600 131.198,145.600 130.764 C 145.600 130.330,145.870 129.871,146.200 129.745 C 146.530 129.618,146.800 129.291,146.800 129.019 C 146.800 128.365,147.949 126.079,148.425 125.784 C 148.631 125.657,148.800 125.203,148.800 124.776 C 148.800 124.349,148.980 124.000,149.200 124.000 C 149.420 124.000,149.600 123.676,149.600 123.280 C 149.600 122.884,149.797 122.363,150.038 122.122 C 150.488 121.672,151.696 119.511,153.181 116.500 C 153.643 115.565,154.195 114.800,154.410 114.800 C 154.624 114.800,154.813 114.485,154.829 114.100 C 154.845 113.715,155.207 112.860,155.634 112.200 C 156.060 111.540,156.518 110.685,156.651 110.300 C 156.784 109.915,157.031 109.600,157.200 109.600 C 157.369 109.600,157.616 109.285,157.750 108.900 C 157.883 108.515,158.540 107.300,159.209 106.200 C 159.878 105.100,160.542 103.930,160.684 103.600 C 160.826 103.270,161.045 102.910,161.171 102.800 C 161.565 102.456,162.413 101.031,162.658 100.300 C 162.788 99.915,163.052 99.600,163.247 99.600 C 163.441 99.600,163.600 99.425,163.600 99.212 C 163.600 98.861,165.887 95.283,166.421 94.800 C 166.542 94.690,166.956 93.925,167.340 93.100 C 167.723 92.275,168.209 91.600,168.419 91.600 C 168.628 91.600,168.800 91.356,168.800 91.058 C 168.800 90.761,169.217 90.067,169.727 89.517 C 170.236 88.967,170.965 87.861,171.345 87.059 C 171.726 86.256,172.209 85.600,172.419 85.600 C 172.628 85.600,172.800 85.356,172.800 85.058 C 172.800 84.761,173.250 84.031,173.800 83.438 C 174.350 82.844,174.800 82.261,174.800 82.143 C 174.800 82.024,176.150 80.052,177.800 77.761 C 179.450 75.470,180.800 73.432,180.800 73.231 C 180.800 73.031,180.946 72.807,181.125 72.733 C 181.304 72.660,182.240 71.520,183.205 70.200 C 184.170 68.880,185.195 67.561,185.483 67.269 C 185.770 66.977,186.204 66.365,186.448 65.910 C 186.922 65.025,188.912 62.747,190.160 61.661 C 190.578 61.298,191.253 60.685,191.660 60.300 C 192.067 59.915,192.670 59.600,193.000 59.600 C 193.330 59.600,193.600 59.420,193.600 59.200 C 193.600 58.980,194.028 58.800,194.551 58.800 C 195.074 58.800,195.726 58.530,196.000 58.200 C 196.435 57.676,200.575 57.600,228.800 57.600 C 257.025 57.600,261.165 57.676,261.600 58.200 M139.002 222.124 C 137.720 222.888,135.012 224.967,134.867 225.297 C 134.793 225.464,134.578 225.600,134.389 225.600 C 134.200 225.600,133.360 226.230,132.522 227.001 C 131.685 227.771,130.725 228.491,130.389 228.600 C 130.053 228.708,129.513 229.188,129.189 229.665 C 128.566 230.583,128.014 231.159,126.152 232.840 C 125.518 233.412,124.604 234.673,124.121 235.642 C 123.637 236.612,122.915 237.764,122.515 238.202 C 121.618 239.187,118.911 244.602,118.566 246.104 C 118.426 246.711,118.151 247.306,117.956 247.427 C 117.760 247.548,117.600 248.526,117.600 249.600 C 117.600 250.674,117.420 251.664,117.200 251.800 C 116.980 251.936,116.800 252.554,116.800 253.173 C 116.800 253.793,116.530 255.065,116.200 256.000 C 115.782 257.184,115.600 259.312,115.600 263.000 C 115.600 266.688,115.782 268.816,116.200 270.000 C 116.530 270.935,116.800 272.207,116.800 272.827 C 116.800 273.446,116.980 274.064,117.200 274.200 C 117.420 274.336,117.606 275.112,117.613 275.924 C 117.628 277.558,118.703 280.981,119.664 282.451 C 120.006 282.973,120.413 283.805,120.569 284.300 C 120.726 284.795,121.022 285.200,121.227 285.200 C 121.432 285.200,121.608 285.605,121.617 286.100 C 121.635 287.018,122.282 288.209,124.843 292.041 C 126.951 295.194,133.601 302.400,134.403 302.400 C 134.585 302.400,134.793 302.550,134.867 302.733 C 135.033 303.150,140.646 307.235,142.000 307.924 C 142.550 308.205,143.720 309.058,144.600 309.821 C 145.480 310.584,146.515 311.309,146.900 311.431 C 147.285 311.554,147.600 311.822,147.600 312.027 C 147.600 312.232,147.788 312.400,148.017 312.400 C 148.247 312.400,148.920 312.850,149.513 313.400 C 150.107 313.950,150.741 314.400,150.923 314.400 C 151.105 314.400,151.843 314.850,152.564 315.400 C 153.286 315.950,154.001 316.400,154.155 316.400 C 154.309 316.400,154.920 316.850,155.513 317.400 C 156.107 317.950,156.804 318.400,157.063 318.400 C 157.321 318.400,157.593 318.536,157.667 318.703 C 157.858 319.139,160.814 321.331,162.046 321.951 C 162.621 322.240,163.533 322.887,164.074 323.388 C 164.614 323.889,165.841 324.795,166.800 325.400 C 167.759 326.005,169.004 326.928,169.568 327.450 C 170.131 327.973,170.757 328.400,170.958 328.400 C 171.160 328.400,171.914 328.850,172.636 329.400 C 173.357 329.950,174.139 330.400,174.373 330.400 C 174.608 330.400,174.800 330.535,174.801 330.700 C 174.801 330.865,175.701 331.613,176.801 332.363 C 177.900 333.112,178.800 333.833,178.800 333.965 C 178.800 334.097,179.295 334.430,179.900 334.705 C 180.505 334.979,181.720 335.840,182.600 336.617 C 183.480 337.393,184.966 338.414,185.901 338.886 C 186.837 339.357,187.945 340.062,188.364 340.452 C 189.700 341.697,193.060 343.600,193.921 343.600 C 194.378 343.600,194.864 343.780,195.000 344.000 C 195.136 344.220,195.856 344.400,196.600 344.400 C 197.344 344.400,198.064 344.580,198.200 344.800 C 198.336 345.020,199.596 345.200,201.000 345.200 C 202.404 345.200,203.664 345.020,203.800 344.800 C 203.936 344.580,204.566 344.400,205.200 344.400 C 205.834 344.400,206.455 344.234,206.581 344.031 C 206.706 343.828,207.347 343.543,208.005 343.399 C 208.662 343.255,209.200 342.971,209.200 342.768 C 209.200 342.566,209.367 342.400,209.571 342.400 C 210.019 342.400,214.945 339.124,215.133 338.700 C 215.207 338.535,215.458 338.400,215.692 338.400 C 215.926 338.400,216.886 337.770,217.826 337.000 C 218.766 336.230,219.708 335.600,219.920 335.600 C 220.132 335.600,221.002 334.922,221.853 334.094 C 222.704 333.266,223.940 332.327,224.600 332.007 C 225.927 331.363,228.924 329.179,229.133 328.703 C 229.207 328.536,229.584 328.400,229.971 328.400 C 230.359 328.400,231.009 328.032,231.417 327.581 C 231.825 327.131,232.842 326.378,233.679 325.908 C 234.516 325.437,235.200 324.906,235.200 324.726 C 235.200 324.547,235.383 324.400,235.606 324.400 C 235.829 324.400,237.022 323.577,238.258 322.570 C 239.493 321.564,240.931 320.578,241.452 320.380 C 241.973 320.182,242.400 319.835,242.400 319.610 C 242.400 319.384,242.602 319.200,242.849 319.200 C 243.275 319.200,247.734 316.168,248.878 315.101 C 249.173 314.825,250.024 314.258,250.769 313.841 C 251.514 313.423,252.763 312.478,253.545 311.741 C 254.327 311.003,255.205 310.400,255.496 310.400 C 255.787 310.400,256.129 310.130,256.255 309.800 C 256.382 309.470,256.667 309.200,256.888 309.200 C 258.476 309.200,274.400 295.836,274.400 294.503 C 274.400 294.376,275.300 292.945,276.400 291.324 C 277.500 289.703,278.400 288.108,278.400 287.780 C 278.400 287.452,278.850 286.471,279.400 285.600 C 279.950 284.729,280.400 283.832,280.400 283.608 C 280.400 283.384,280.545 283.200,280.723 283.200 C 281.173 283.200,282.400 280.317,282.400 279.260 C 282.400 278.781,282.556 278.077,282.746 277.695 C 283.577 276.030,284.133 274.059,284.297 272.200 C 284.394 271.100,284.637 270.029,284.837 269.820 C 285.342 269.292,285.307 255.713,284.800 255.400 C 284.580 255.264,284.400 254.603,284.400 253.930 C 284.400 252.760,283.468 249.369,282.744 247.905 C 282.555 247.523,282.400 246.909,282.400 246.540 C 282.400 245.637,281.128 242.800,280.723 242.800 C 280.545 242.800,280.400 242.502,280.400 242.138 C 280.400 241.774,279.950 240.886,279.400 240.164 C 278.850 239.443,278.400 238.669,278.400 238.443 C 278.400 237.647,274.986 232.878,273.890 232.144 C 273.279 231.735,272.396 230.844,271.926 230.164 C 271.456 229.484,270.435 228.494,269.657 227.964 C 268.879 227.434,267.726 226.531,267.096 225.958 C 266.465 225.385,265.196 224.520,264.275 224.036 C 263.354 223.552,262.060 222.819,261.400 222.407 C 258.908 220.852,256.023 221.493,254.288 223.989 C 253.532 225.076,253.293 230.163,253.977 230.586 C 254.184 230.714,254.475 231.627,254.623 232.614 C 254.771 233.602,255.052 234.508,255.246 234.629 C 256.036 235.117,255.613 238.746,254.563 240.484 C 252.217 244.366,248.537 245.488,244.432 243.573 C 240.155 241.578,238.700 240.756,238.280 240.100 C 238.104 239.825,237.726 239.600,237.440 239.600 C 236.750 239.600,233.452 237.833,231.823 236.590 C 231.109 236.046,230.309 235.600,230.045 235.600 C 229.781 235.600,229.080 235.150,228.487 234.600 C 227.893 234.050,227.102 233.600,226.728 233.600 C 226.353 233.600,225.939 233.425,225.807 233.211 C 225.674 232.997,224.899 232.512,224.083 232.134 C 223.267 231.756,222.043 231.031,221.362 230.523 C 220.681 230.015,219.837 229.600,219.486 229.600 C 219.135 229.600,218.749 229.442,218.630 229.248 C 218.355 228.804,214.716 227.600,213.648 227.600 C 213.208 227.600,212.736 227.420,212.600 227.200 C 212.464 226.980,212.024 226.800,211.622 226.800 C 211.220 226.800,210.376 226.531,209.746 226.202 C 209.116 225.874,207.756 225.604,206.724 225.602 C 205.692 225.601,204.736 225.420,204.600 225.200 C 204.464 224.980,202.844 224.800,201.000 224.800 C 199.156 224.800,197.536 224.980,197.400 225.200 C 197.264 225.420,195.858 225.601,194.276 225.602 C 192.507 225.604,190.959 225.835,190.254 226.202 C 189.624 226.531,188.780 226.800,188.378 226.800 C 187.976 226.800,187.536 226.980,187.400 227.200 C 187.264 227.420,186.621 227.600,185.971 227.600 C 185.321 227.600,184.477 227.754,184.095 227.941 C 183.713 228.129,182.680 228.619,181.800 229.031 C 180.920 229.442,179.643 230.189,178.962 230.689 C 178.281 231.190,177.537 231.600,177.308 231.600 C 176.606 231.600,175.062 232.527,173.146 234.100 C 172.140 234.925,170.995 235.600,170.600 235.600 C 170.205 235.600,169.144 236.204,168.241 236.943 C 167.339 237.681,166.195 238.413,165.700 238.570 C 165.205 238.726,164.800 239.022,164.800 239.227 C 164.800 239.432,164.432 239.600,163.983 239.600 C 163.533 239.600,162.680 240.050,162.087 240.600 C 161.493 241.150,160.736 241.613,160.404 241.629 C 160.072 241.645,159.260 242.003,158.600 242.425 C 157.940 242.846,157.130 243.302,156.800 243.438 C 156.470 243.574,155.633 243.936,154.940 244.243 C 153.166 245.027,149.200 244.241,149.200 243.106 C 149.200 242.938,148.961 242.800,148.670 242.800 C 148.057 242.800,146.400 241.147,146.400 240.536 C 146.400 240.309,146.120 239.563,145.779 238.878 C 145.147 237.611,145.307 235.029,146.045 234.572 C 146.240 234.451,146.400 233.474,146.400 232.400 C 146.400 231.326,146.580 230.336,146.800 230.200 C 147.373 229.846,147.295 224.955,146.700 223.913 C 145.437 221.699,141.318 220.741,139.002 222.124 M144.069 224.662 C 144.870 225.388,145.027 227.362,144.443 229.372 C 144.246 230.047,143.826 231.500,143.509 232.600 C 140.306 243.705,150.179 250.814,160.200 244.618 C 161.300 243.938,162.650 243.165,163.200 242.900 C 163.750 242.635,164.920 241.966,165.800 241.413 C 166.680 240.861,167.760 240.232,168.200 240.015 C 168.640 239.799,170.260 238.888,171.800 237.990 C 173.340 237.092,174.915 236.256,175.300 236.132 C 175.685 236.008,176.000 235.748,176.000 235.553 C 176.000 235.359,176.228 235.200,176.507 235.200 C 176.786 235.200,177.641 234.791,178.407 234.290 C 185.479 229.672,198.288 226.992,205.600 228.600 C 207.030 228.915,208.864 229.178,209.676 229.186 C 210.488 229.194,211.264 229.380,211.400 229.600 C 211.536 229.820,212.132 230.006,212.724 230.013 C 213.316 230.020,214.149 230.290,214.576 230.613 C 215.004 230.936,215.677 231.200,216.073 231.200 C 216.995 231.200,226.480 236.115,228.000 237.381 C 228.330 237.656,229.748 238.445,231.152 239.134 C 232.555 239.824,233.905 240.552,234.152 240.752 C 234.552 241.078,237.232 242.618,239.406 243.772 C 239.849 244.007,240.777 244.605,241.467 245.100 C 242.158 245.595,243.000 246.000,243.338 246.000 C 243.676 246.000,244.064 246.180,244.200 246.400 C 245.511 248.521,256.000 245.437,256.000 242.930 C 256.000 242.639,256.147 242.400,256.326 242.400 C 257.102 242.400,258.000 239.459,258.000 236.915 C 258.000 234.288,257.902 233.768,256.643 229.746 C 255.135 224.928,257.835 222.254,261.436 225.000 C 262.157 225.550,262.939 226.000,263.173 226.000 C 263.408 226.000,263.600 226.156,263.600 226.347 C 263.600 226.538,264.365 227.196,265.300 227.811 C 272.041 232.239,278.153 240.702,280.603 249.000 C 280.993 250.320,281.459 251.760,281.639 252.200 C 281.819 252.640,282.039 254.080,282.128 255.400 C 282.217 256.720,282.510 259.021,282.778 260.514 C 283.190 262.798,283.167 263.723,282.633 266.354 C 282.285 268.073,282.000 270.306,282.000 271.316 C 282.000 272.326,281.820 273.264,281.600 273.400 C 281.380 273.536,281.201 274.042,281.202 274.524 C 281.204 275.285,280.582 277.489,279.601 280.200 C 279.442 280.640,278.567 282.530,277.656 284.401 C 276.745 286.271,276.000 287.943,276.000 288.117 C 276.000 288.291,275.622 288.831,275.160 289.317 C 274.699 289.803,274.204 290.492,274.060 290.848 C 273.482 292.289,268.505 297.694,265.451 300.201 C 262.284 302.799,262.080 302.959,260.710 303.913 C 259.990 304.416,257.747 305.991,255.728 307.413 C 253.708 308.836,251.878 310.000,251.661 310.000 C 251.444 310.000,251.207 310.154,251.133 310.342 C 251.060 310.530,249.560 311.697,247.800 312.935 C 246.040 314.173,244.406 315.347,244.169 315.545 C 243.931 315.742,243.031 316.350,242.169 316.897 C 240.632 317.870,227.798 326.856,226.990 327.524 C 226.764 327.711,226.044 328.208,225.390 328.629 C 224.735 329.049,223.851 329.710,223.425 330.097 C 222.998 330.484,222.516 330.800,222.353 330.800 C 222.190 330.800,221.819 331.033,221.529 331.318 C 221.238 331.602,219.785 332.630,218.300 333.602 C 216.815 334.574,215.600 335.511,215.600 335.685 C 215.600 335.858,215.411 336.000,215.181 336.000 C 214.950 336.000,213.132 337.170,211.140 338.600 C 209.149 340.030,207.213 341.200,206.840 341.200 C 206.466 341.200,205.954 341.406,205.701 341.659 C 203.782 343.578,194.057 341.825,190.000 338.828 C 186.704 336.394,177.520 329.947,176.000 329.001 C 175.010 328.385,174.110 327.771,174.000 327.638 C 173.566 327.112,169.215 324.000,168.913 324.000 C 168.736 324.000,168.107 323.550,167.513 323.000 C 166.920 322.450,166.343 322.000,166.231 322.000 C 166.119 322.000,164.157 320.668,161.870 319.041 C 159.583 317.413,156.922 315.586,155.956 314.981 C 154.990 314.376,154.110 313.760,154.000 313.612 C 153.611 313.091,149.229 310.000,148.879 310.000 C 148.684 310.000,148.191 309.632,147.783 309.181 C 147.376 308.731,146.491 308.101,145.817 307.781 C 145.143 307.461,144.141 306.795,143.590 306.300 C 143.040 305.805,141.259 304.500,139.633 303.400 C 135.160 300.373,126.000 290.937,126.000 289.355 C 126.000 289.201,125.550 288.486,125.000 287.764 C 124.450 287.043,124.000 286.258,124.000 286.019 C 124.000 285.780,123.550 284.871,123.000 284.000 C 122.450 283.129,122.000 282.163,122.000 281.854 C 122.000 281.544,121.731 280.776,121.402 280.146 C 121.074 279.516,120.804 278.696,120.802 278.324 C 120.801 277.952,120.620 277.536,120.400 277.400 C 120.180 277.264,120.000 276.569,120.000 275.856 C 120.000 275.143,119.835 274.389,119.634 274.180 C 118.302 272.798,117.870 260.672,118.950 255.000 C 119.327 253.020,119.737 250.724,119.860 249.897 C 119.983 249.071,120.245 248.295,120.442 248.174 C 120.639 248.052,120.800 247.662,120.800 247.306 C 120.800 246.456,123.858 240.153,125.059 238.527 C 125.577 237.826,126.000 237.143,126.000 237.008 C 126.000 236.872,126.450 236.345,127.000 235.835 C 127.550 235.325,128.000 234.772,128.000 234.606 C 128.000 234.332,129.558 232.782,132.661 229.967 C 133.288 229.399,134.565 228.430,135.500 227.814 C 136.435 227.198,137.200 226.538,137.200 226.347 C 137.200 226.156,137.425 225.999,137.700 225.998 C 137.975 225.997,138.740 225.553,139.400 225.012 C 140.814 223.853,142.994 223.689,144.069 224.662 " stroke="none" fill="#4a4a4a" fill-rule="evenodd"></path><path id="path2" d="M197.194 58.747 C 193.005 59.987,187.216 64.363,187.203 66.300 C 187.201 66.575,187.055 66.800,186.877 66.800 C 186.699 66.800,186.024 67.531,185.377 68.426 C 184.730 69.320,183.075 71.570,181.700 73.427 C 180.325 75.283,179.200 76.901,179.200 77.022 C 179.200 77.143,178.171 78.628,176.914 80.321 C 173.922 84.351,172.000 87.201,172.000 87.607 C 172.000 87.786,171.859 87.993,171.687 88.067 C 171.271 88.244,168.000 93.193,168.000 93.646 C 168.000 93.841,167.820 94.000,167.600 94.000 C 167.380 94.000,167.200 94.201,167.200 94.446 C 167.200 94.692,166.345 96.173,165.300 97.739 C 163.281 100.763,162.611 101.834,162.136 102.800 C 161.974 103.130,160.797 105.076,159.521 107.124 C 158.244 109.172,157.200 110.924,157.200 111.017 C 157.200 111.110,156.522 112.314,155.694 113.693 C 154.866 115.072,153.924 116.740,153.600 117.400 C 153.276 118.060,152.334 119.728,151.506 121.107 C 150.678 122.486,149.987 123.836,149.971 124.107 C 149.955 124.378,149.608 125.140,149.201 125.800 C 147.978 127.782,142.632 138.695,140.188 144.200 C 139.699 145.300,138.827 147.224,138.250 148.475 C 137.672 149.726,137.200 150.869,137.200 151.014 C 137.200 151.160,136.912 151.936,136.559 152.740 C 136.207 153.543,135.778 154.560,135.607 155.000 C 134.779 157.129,133.875 159.479,133.608 160.200 C 133.444 160.640,133.016 161.681,132.655 162.514 C 132.295 163.346,132.000 164.370,132.000 164.790 C 132.000 165.210,131.820 165.664,131.600 165.800 C 131.380 165.936,131.200 166.452,131.200 166.947 C 131.200 167.442,130.936 168.196,130.613 168.624 C 130.290 169.051,130.020 169.884,130.013 170.476 C 130.006 171.068,129.820 171.664,129.600 171.800 C 129.380 171.936,129.194 172.532,129.186 173.124 C 129.178 173.716,128.914 174.650,128.600 175.200 C 128.286 175.750,128.022 176.684,128.014 177.276 C 128.006 177.868,127.820 178.464,127.600 178.600 C 127.380 178.736,127.194 179.332,127.186 179.924 C 127.178 180.516,126.914 181.450,126.600 182.000 C 126.286 182.550,126.022 183.527,126.014 184.172 C 126.006 184.816,125.836 185.896,125.635 186.572 C 124.517 190.330,123.933 193.203,123.217 198.476 C 123.017 199.948,122.662 201.511,122.427 201.950 C 122.192 202.388,122.000 204.137,122.000 205.835 L 122.000 208.923 123.667 210.461 C 126.679 213.243,129.523 212.389,135.532 206.900 C 136.074 206.405,136.741 206.000,137.016 206.000 C 137.290 206.000,137.618 205.730,137.745 205.400 C 137.871 205.070,138.146 204.800,138.356 204.800 C 138.565 204.800,140.146 203.934,141.868 202.875 C 143.591 201.817,145.900 200.535,147.000 200.027 C 148.100 199.519,150.097 198.585,151.439 197.952 C 152.780 197.318,154.087 196.800,154.344 196.800 C 154.601 196.800,155.123 196.644,155.505 196.454 C 156.558 195.929,158.877 195.142,160.000 194.929 C 160.550 194.825,161.360 194.596,161.800 194.420 C 163.687 193.665,167.165 192.800,168.312 192.800 C 168.994 192.800,169.664 192.620,169.800 192.400 C 169.936 192.180,170.858 192.000,171.850 192.000 C 172.841 192.000,174.046 191.785,174.526 191.521 C 175.007 191.258,177.020 190.900,179.000 190.727 C 180.980 190.553,184.580 190.241,187.000 190.033 C 192.558 189.556,207.621 189.544,213.400 190.012 C 221.043 190.631,224.964 191.108,226.126 191.561 C 226.745 191.802,228.040 192.000,229.002 192.000 C 229.965 192.000,230.864 192.180,231.000 192.400 C 231.136 192.620,231.822 192.799,232.524 192.798 C 233.226 192.797,234.610 193.053,235.600 193.367 C 236.590 193.680,239.020 194.438,241.000 195.051 C 242.980 195.663,244.771 196.307,244.980 196.482 C 245.189 196.657,245.701 196.800,246.118 196.800 C 246.535 196.800,247.354 197.046,247.938 197.346 C 248.522 197.646,251.340 199.032,254.200 200.425 C 257.060 201.819,259.957 203.373,260.638 203.879 C 261.319 204.386,262.075 204.800,262.318 204.800 C 262.561 204.800,262.904 205.044,263.080 205.342 C 263.256 205.640,264.120 206.360,265.000 206.942 C 265.880 207.524,267.680 208.894,269.000 209.987 C 274.077 214.190,280.565 210.691,278.635 204.791 C 278.286 203.723,278.000 201.927,278.000 200.799 C 278.000 199.670,277.813 198.398,277.584 197.970 C 277.355 197.543,277.011 196.070,276.819 194.697 C 276.628 193.323,276.166 190.940,275.793 189.400 C 275.420 187.860,275.032 186.060,274.930 185.400 C 274.829 184.740,274.602 183.840,274.426 183.400 C 273.969 182.256,273.170 179.223,272.923 177.696 C 272.807 176.979,272.551 176.294,272.356 176.173 C 272.160 176.052,271.994 175.558,271.987 175.076 C 271.973 174.136,270.687 170.154,270.259 169.725 C 270.116 169.583,270.000 168.993,270.000 168.413 C 270.000 167.834,269.846 167.189,269.658 166.980 C 269.470 166.771,269.012 165.610,268.640 164.400 C 268.037 162.437,267.406 160.874,266.341 158.705 C 266.154 158.323,266.000 157.683,266.000 157.282 C 266.000 156.881,265.736 156.204,265.413 155.776 C 265.090 155.349,264.820 154.719,264.813 154.375 C 264.806 154.031,264.464 153.041,264.053 152.175 C 263.642 151.309,262.998 149.880,262.623 149.000 C 262.248 148.120,261.709 146.860,261.426 146.200 C 261.144 145.540,260.685 144.460,260.407 143.800 C 260.130 143.140,259.623 142.060,259.281 141.400 C 258.939 140.740,258.519 139.930,258.349 139.600 C 258.178 139.270,257.737 138.280,257.369 137.400 C 257.000 136.520,255.991 134.360,255.127 132.600 C 253.550 129.390,253.377 129.049,252.391 127.200 C 252.098 126.650,250.966 124.490,249.876 122.400 C 248.786 120.310,247.678 118.330,247.414 118.000 C 247.150 117.670,246.622 116.770,246.241 116.000 C 245.860 115.230,245.026 113.700,244.387 112.600 C 243.747 111.500,243.093 110.330,242.933 110.000 C 242.772 109.670,241.597 107.724,240.321 105.676 C 239.044 103.628,238.000 101.614,238.000 101.202 C 238.000 100.751,243.574 94.865,252.000 86.417 C 259.700 78.697,266.000 72.131,266.000 71.824 C 266.000 71.518,266.225 71.192,266.500 71.100 C 267.183 70.872,267.179 65.019,266.496 64.336 C 266.223 64.063,266.000 63.570,266.000 63.239 C 266.000 62.074,262.660 59.430,260.265 58.700 C 256.895 57.673,200.683 57.715,197.194 58.747 " stroke="none" fill="#fbfbfb" fill-rule="evenodd"></path><path id="path3" d="M195.949 58.277 C 195.515 58.812,195.511 58.887,195.931 58.634 C 196.224 58.458,196.944 58.169,197.531 57.991 L 198.600 57.669 197.549 57.634 C 196.971 57.615,196.251 57.905,195.949 58.277 M260.000 57.893 C 260.550 57.994,261.270 58.284,261.600 58.538 C 262.122 58.940,262.129 58.909,261.651 58.300 C 261.348 57.914,260.630 57.624,260.051 57.654 L 259.000 57.709 260.000 57.893 M267.600 67.824 C 267.600 68.607,267.750 69.155,267.933 69.041 C 268.249 68.846,268.083 66.400,267.755 66.400 C 267.670 66.400,267.600 67.041,267.600 67.824 M191.900 190.293 C 192.835 190.377,194.365 190.377,195.300 190.293 C 196.235 190.209,195.470 190.140,193.600 190.140 C 191.730 190.140,190.965 190.209,191.900 190.293 M205.511 190.293 C 206.451 190.378,207.891 190.377,208.711 190.291 C 209.530 190.205,208.760 190.136,207.000 190.137 C 205.240 190.139,204.570 190.209,205.511 190.293 M184.400 190.800 L 183.000 191.095 184.600 191.141 C 185.480 191.167,186.470 191.013,186.800 190.800 C 187.524 190.332,186.623 190.332,184.400 190.800 M213.824 190.838 C 213.947 191.037,214.787 191.200,215.690 191.200 C 217.721 191.200,217.552 190.981,215.300 190.693 C 214.330 190.569,213.696 190.632,213.824 190.838 M276.800 211.400 C 276.055 211.950,275.615 212.394,275.822 212.386 C 276.224 212.370,278.755 210.405,278.378 210.402 C 278.255 210.401,277.545 210.850,276.800 211.400 M126.600 212.800 C 126.736 213.020,127.096 213.200,127.400 213.200 C 127.704 213.200,128.064 213.020,128.200 212.800 C 128.341 212.572,127.996 212.400,127.400 212.400 C 126.804 212.400,126.459 212.572,126.600 212.800 M272.400 212.800 C 272.400 213.020,272.749 213.200,273.176 213.200 C 273.603 213.200,274.064 213.020,274.200 212.800 C 274.340 212.573,274.004 212.400,273.424 212.400 C 272.861 212.400,272.400 212.580,272.400 212.800 M139.400 225.012 C 138.740 225.553,137.975 225.997,137.700 225.998 C 137.425 225.999,137.200 226.156,137.200 226.347 C 137.200 226.538,136.435 227.198,135.500 227.814 C 134.565 228.430,133.288 229.399,132.661 229.967 C 129.558 232.782,128.000 234.332,128.000 234.606 C 128.000 234.772,127.550 235.325,127.000 235.835 C 126.450 236.345,126.000 236.872,126.000 237.008 C 126.000 237.143,125.577 237.826,125.059 238.527 C 123.858 240.153,120.800 246.456,120.800 247.306 C 120.800 247.662,120.639 248.052,120.442 248.174 C 120.245 248.295,119.983 249.071,119.860 249.897 C 119.737 250.724,119.327 253.020,118.950 255.000 C 117.870 260.672,118.302 272.798,119.634 274.180 C 119.835 274.389,120.000 275.143,120.000 275.856 C 120.000 276.569,120.180 277.264,120.400 277.400 C 120.620 277.536,120.801 277.952,120.802 278.324 C 120.804 278.696,121.074 279.516,121.402 280.146 C 121.731 280.776,122.000 281.544,122.000 281.854 C 122.000 282.163,122.450 283.129,123.000 284.000 C 123.550 284.871,124.000 285.780,124.000 286.019 C 124.000 286.258,124.450 287.043,125.000 287.764 C 125.550 288.486,126.000 289.201,126.000 289.355 C 126.000 290.937,135.160 300.373,139.633 303.400 C 141.259 304.500,143.040 305.805,143.590 306.300 C 144.141 306.795,145.143 307.461,145.817 307.781 C 146.491 308.101,147.376 308.731,147.783 309.181 C 148.191 309.632,148.684 310.000,148.879 310.000 C 149.229 310.000,153.611 313.091,154.000 313.612 C 154.110 313.760,154.990 314.376,155.956 314.981 C 156.922 315.586,159.583 317.413,161.870 319.041 C 164.157 320.668,166.119 322.000,166.231 322.000 C 166.343 322.000,166.920 322.450,167.513 323.000 C 168.107 323.550,168.736 324.000,168.913 324.000 C 169.215 324.000,173.566 327.112,174.000 327.638 C 174.110 327.771,175.010 328.385,176.000 329.001 C 177.520 329.947,186.704 336.394,190.000 338.828 C 194.057 341.825,203.782 343.578,205.701 341.659 C 205.954 341.406,206.466 341.200,206.840 341.200 C 207.213 341.200,209.149 340.030,211.140 338.600 C 213.132 337.170,214.950 336.000,215.181 336.000 C 215.411 336.000,215.600 335.858,215.600 335.685 C 215.600 335.511,216.815 334.574,218.300 333.602 C 219.785 332.630,221.238 331.602,221.529 331.318 C 221.819 331.033,222.190 330.800,222.353 330.800 C 222.516 330.800,222.998 330.484,223.425 330.097 C 223.851 329.710,224.735 329.049,225.390 328.629 C 226.044 328.208,226.764 327.711,226.990 327.524 C 227.798 326.856,240.632 317.870,242.169 316.897 C 243.031 316.350,243.931 315.742,244.169 315.545 C 244.406 315.347,246.040 314.173,247.800 312.935 C 249.560 311.697,251.060 310.530,251.133 310.342 C 251.207 310.154,251.444 310.000,251.661 310.000 C 251.878 310.000,253.708 308.836,255.728 307.413 C 257.747 305.991,259.990 304.416,260.710 303.913 C 262.080 302.959,262.284 302.799,265.451 300.201 C 268.505 297.694,273.482 292.289,274.060 290.848 C 274.204 290.492,274.699 289.803,275.160 289.317 C 275.622 288.831,276.000 288.291,276.000 288.117 C 276.000 287.943,276.745 286.271,277.656 284.401 C 278.567 282.530,279.442 280.640,279.601 280.200 C 280.582 277.489,281.204 275.285,281.202 274.524 C 281.201 274.042,281.380 273.536,281.600 273.400 C 281.820 273.264,282.000 272.326,282.000 271.316 C 282.000 270.306,282.285 268.073,282.633 266.354 C 283.167 263.723,283.190 262.798,282.778 260.514 C 282.510 259.021,282.217 256.720,282.128 255.400 C 282.039 254.080,281.819 252.640,281.639 252.200 C 281.459 251.760,280.993 250.320,280.603 249.000 C 278.153 240.702,272.041 232.239,265.300 227.811 C 264.365 227.196,263.600 226.538,263.600 226.347 C 263.600 226.156,263.408 226.000,263.173 226.000 C 262.939 226.000,262.157 225.550,261.436 225.000 C 257.835 222.254,255.135 224.928,256.643 229.746 C 257.902 233.768,258.000 234.288,258.000 236.915 C 258.000 239.459,257.102 242.400,256.326 242.400 C 256.147 242.400,256.000 242.639,256.000 242.930 C 256.000 245.437,245.511 248.521,244.200 246.400 C 244.064 246.180,243.676 246.000,243.338 246.000 C 243.000 246.000,242.158 245.595,241.467 245.100 C 240.777 244.605,239.849 244.007,239.406 243.772 C 237.232 242.618,234.552 241.078,234.152 240.752 C 233.905 240.552,232.555 239.824,231.152 239.134 C 229.748 238.445,228.330 237.656,228.000 237.381 C 226.480 236.115,216.995 231.200,216.073 231.200 C 215.677 231.200,215.004 230.936,214.576 230.613 C 214.149 230.290,213.316 230.020,212.724 230.013 C 212.132 230.006,211.536 229.820,211.400 229.600 C 211.264 229.380,210.488 229.194,209.676 229.186 C 208.864 229.178,207.030 228.915,205.600 228.600 C 201.319 227.658,195.787 228.025,189.400 229.673 C 186.213 230.495,180.622 232.844,178.407 234.290 C 177.641 234.791,176.786 235.200,176.507 235.200 C 176.228 235.200,176.000 235.359,176.000 235.553 C 176.000 235.748,175.685 236.008,175.300 236.132 C 174.915 236.256,173.340 237.092,171.800 237.990 C 170.260 238.888,168.640 239.799,168.200 240.015 C 167.760 240.232,166.680 240.861,165.800 241.413 C 164.920 241.966,163.750 242.635,163.200 242.900 C 162.650 243.165,161.300 243.938,160.200 244.618 C 150.179 250.814,140.306 243.705,143.509 232.600 C 143.826 231.500,144.246 230.047,144.443 229.372 C 145.760 224.840,142.767 222.253,139.400 225.012 M143.474 225.270 C 144.439 226.176,144.688 227.375,144.000 227.800 C 143.780 227.936,143.600 228.769,143.600 229.652 C 143.600 230.545,143.334 231.523,143.000 231.857 C 142.541 232.317,142.400 233.471,142.400 236.786 C 142.400 240.264,142.518 241.160,143.000 241.345 C 143.330 241.471,143.600 241.865,143.600 242.219 C 143.600 243.155,146.991 246.400,147.968 246.400 C 148.426 246.400,148.800 246.648,148.800 246.951 C 148.800 247.806,156.479 247.868,157.185 247.019 C 157.467 246.678,158.036 246.400,158.449 246.400 C 158.862 246.400,159.200 246.220,159.200 246.000 C 159.200 245.780,159.538 245.600,159.951 245.600 C 160.364 245.600,160.895 245.367,161.132 245.082 C 161.368 244.797,162.200 244.314,162.981 244.008 C 163.761 243.701,164.400 243.214,164.400 242.925 C 164.400 242.636,164.835 242.400,165.367 242.400 C 165.898 242.400,166.397 242.210,166.474 241.978 C 166.551 241.746,166.941 241.509,167.339 241.450 C 167.738 241.392,168.185 241.167,168.332 240.951 C 168.479 240.735,169.275 240.244,170.100 239.860 C 170.925 239.477,171.600 238.991,171.600 238.781 C 171.600 238.572,171.960 238.400,172.400 238.400 C 172.840 238.400,173.200 238.240,173.200 238.043 C 173.200 237.847,173.650 237.574,174.200 237.436 C 174.750 237.298,175.200 237.008,175.200 236.792 C 175.200 236.577,175.584 236.400,176.054 236.400 C 176.524 236.400,177.325 235.950,177.835 235.400 C 178.345 234.850,179.130 234.400,179.581 234.400 C 180.031 234.400,180.400 234.220,180.400 234.000 C 180.400 233.780,180.766 233.600,181.213 233.600 C 181.659 233.600,182.129 233.330,182.255 233.000 C 182.382 232.670,182.916 232.400,183.443 232.400 C 183.969 232.400,184.400 232.220,184.400 232.000 C 184.400 231.780,185.036 231.600,185.813 231.600 C 186.699 231.600,187.311 231.377,187.455 231.000 C 187.605 230.611,188.225 230.400,189.219 230.400 C 190.063 230.400,190.864 230.220,191.000 230.000 C 191.136 229.780,192.502 229.600,194.036 229.600 C 196.146 229.600,196.881 229.454,197.055 229.000 C 197.357 228.215,203.440 228.120,203.699 228.896 C 203.798 229.193,205.053 229.508,206.832 229.682 C 211.723 230.160,213.327 230.470,213.907 231.049 C 214.209 231.352,214.884 231.600,215.405 231.600 C 215.926 231.600,216.464 231.780,216.600 232.000 C 216.736 232.220,217.110 232.400,217.432 232.400 C 217.753 232.400,218.729 232.850,219.600 233.400 C 220.471 233.950,221.458 234.400,221.792 234.400 C 222.126 234.400,222.400 234.552,222.400 234.737 C 222.400 234.922,223.075 235.417,223.900 235.837 C 224.725 236.257,225.490 236.711,225.600 236.846 C 225.710 236.981,226.205 237.219,226.700 237.373 C 227.195 237.528,227.600 237.822,227.600 238.027 C 227.600 238.232,227.951 238.400,228.379 238.400 C 228.808 238.400,229.644 238.850,230.238 239.400 C 230.831 239.950,231.651 240.400,232.058 240.400 C 232.466 240.400,232.801 240.535,232.803 240.700 C 232.805 241.033,235.065 242.400,235.612 242.400 C 235.803 242.400,236.444 242.850,237.038 243.400 C 237.631 243.950,238.451 244.400,238.858 244.400 C 239.266 244.400,239.600 244.560,239.600 244.757 C 239.600 244.953,240.050 245.226,240.600 245.364 C 241.150 245.502,241.600 245.792,241.600 246.008 C 241.600 246.223,242.031 246.400,242.557 246.400 C 243.084 246.400,243.618 246.670,243.745 247.000 C 243.928 247.478,244.791 247.600,248.000 247.600 C 251.209 247.600,252.072 247.478,252.255 247.000 C 252.382 246.670,252.812 246.400,253.212 246.400 C 254.078 246.400,256.104 244.454,257.439 242.338 C 258.473 240.700,258.912 232.764,258.000 232.200 C 257.780 232.064,257.600 231.316,257.600 230.538 C 257.600 229.760,257.290 228.599,256.912 227.958 C 256.229 226.802,256.234 226.782,257.492 225.523 L 258.762 224.253 260.181 225.018 C 260.961 225.438,261.600 225.921,261.600 226.091 C 261.600 226.261,261.788 226.400,262.017 226.400 C 262.247 226.400,262.920 226.850,263.513 227.400 C 264.107 227.950,264.727 228.400,264.892 228.400 C 265.825 228.400,275.600 238.965,275.600 239.973 C 275.600 240.208,275.780 240.400,276.000 240.400 C 276.220 240.400,276.400 240.751,276.400 241.180 C 276.400 241.609,276.642 242.104,276.938 242.280 C 277.234 242.456,277.798 243.455,278.192 244.500 C 278.586 245.545,279.064 246.400,279.254 246.400 C 279.444 246.400,279.600 247.019,279.600 247.776 C 279.600 248.533,279.780 249.264,280.000 249.400 C 280.220 249.536,280.400 250.254,280.400 250.995 C 280.400 251.736,280.670 252.613,281.000 252.943 C 281.454 253.397,281.600 254.524,281.600 257.577 C 281.600 260.066,281.788 261.911,282.090 262.395 C 282.477 263.015,282.477 263.283,282.090 263.670 C 281.770 263.990,281.596 265.557,281.587 268.180 C 281.578 271.079,281.411 272.416,280.987 272.976 C 280.664 273.404,280.400 274.439,280.400 275.276 C 280.400 276.114,280.220 276.800,280.000 276.800 C 279.780 276.800,279.600 277.430,279.600 278.200 C 279.600 278.970,279.455 279.600,279.277 279.600 C 279.099 279.600,278.634 280.365,278.243 281.300 C 276.934 284.431,274.240 289.600,273.918 289.600 C 273.743 289.600,273.600 289.827,273.600 290.105 C 273.600 290.383,273.150 290.948,272.600 291.361 C 272.050 291.774,271.600 292.380,271.600 292.707 C 271.600 293.344,264.172 300.800,263.537 300.800 C 263.328 300.800,262.581 301.347,261.878 302.016 C 261.175 302.684,259.925 303.618,259.100 304.089 C 258.275 304.561,257.600 305.094,257.600 305.274 C 257.600 305.453,257.408 305.600,257.173 305.600 C 256.765 305.600,254.383 307.248,253.271 308.300 C 252.981 308.575,252.501 308.800,252.205 308.800 C 251.909 308.800,251.607 308.935,251.533 309.100 C 251.328 309.561,248.503 311.600,248.069 311.600 C 247.858 311.600,247.582 311.870,247.455 312.200 C 247.329 312.530,246.949 312.800,246.613 312.800 C 246.276 312.800,246.000 312.980,246.000 313.200 C 246.000 313.420,245.811 313.600,245.581 313.600 C 245.350 313.600,244.745 314.050,244.235 314.600 C 243.725 315.150,243.057 315.600,242.750 315.600 C 242.443 315.600,241.707 316.050,241.113 316.600 C 240.520 317.150,239.847 317.600,239.617 317.600 C 239.388 317.600,239.200 317.780,239.200 318.000 C 239.200 318.220,238.939 318.400,238.620 318.400 C 238.301 318.400,237.896 318.625,237.720 318.901 C 237.544 319.176,236.950 319.633,236.400 319.916 C 235.850 320.199,234.791 320.964,234.046 321.616 C 233.301 322.267,232.461 322.800,232.179 322.800 C 231.897 322.800,231.607 322.957,231.533 323.148 C 231.460 323.339,229.960 324.458,228.200 325.634 C 226.440 326.811,224.604 328.184,224.119 328.686 C 223.635 329.189,222.954 329.600,222.607 329.600 C 222.259 329.600,221.880 329.847,221.764 330.149 C 221.648 330.451,220.733 331.120,219.731 331.635 C 218.729 332.151,217.820 332.804,217.711 333.086 C 217.603 333.369,217.346 333.600,217.140 333.600 C 216.787 333.600,216.318 333.931,215.015 335.100 C 214.708 335.375,214.264 335.600,214.029 335.600 C 213.793 335.600,213.600 335.768,213.600 335.973 C 213.600 336.178,213.221 336.466,212.757 336.614 C 212.294 336.761,211.559 337.178,211.124 337.541 C 210.689 337.903,209.960 338.515,209.505 338.900 C 209.050 339.285,208.435 339.600,208.139 339.600 C 207.842 339.600,207.600 339.760,207.600 339.955 C 207.600 340.151,206.970 340.429,206.200 340.574 C 205.430 340.718,204.800 341.008,204.800 341.218 C 204.800 341.894,196.436 341.693,195.743 341.000 C 195.413 340.670,194.706 340.400,194.171 340.400 C 193.637 340.400,193.200 340.220,193.200 340.000 C 193.200 339.780,192.930 339.600,192.600 339.600 C 192.270 339.600,192.000 339.420,192.000 339.200 C 192.000 338.980,191.724 338.800,191.387 338.800 C 191.051 338.800,190.671 338.530,190.545 338.200 C 190.418 337.870,190.064 337.600,189.757 337.600 C 189.451 337.600,189.200 337.420,189.200 337.200 C 189.200 336.980,189.001 336.800,188.758 336.800 C 188.514 336.800,187.633 336.260,186.800 335.600 C 185.967 334.940,185.086 334.400,184.842 334.400 C 184.599 334.400,184.400 334.220,184.400 334.000 C 184.400 333.780,184.212 333.600,183.982 333.600 C 183.752 333.600,183.114 333.150,182.564 332.600 C 182.014 332.050,181.384 331.600,181.164 331.600 C 180.945 331.600,180.280 331.150,179.687 330.600 C 179.093 330.050,178.413 329.600,178.174 329.600 C 177.935 329.600,177.317 329.150,176.800 328.600 C 176.283 328.050,175.622 327.600,175.330 327.600 C 175.039 327.600,174.110 326.925,173.267 326.100 C 172.423 325.275,171.478 324.541,171.167 324.470 C 170.855 324.398,170.540 324.173,170.467 323.970 C 170.393 323.766,170.078 323.600,169.767 323.600 C 169.455 323.600,169.200 323.432,169.200 323.227 C 169.200 323.022,168.885 322.753,168.500 322.629 C 168.115 322.506,167.277 321.954,166.638 321.402 C 165.999 320.851,165.312 320.400,165.111 320.400 C 164.911 320.400,164.084 319.772,163.273 319.003 C 162.463 318.235,161.566 317.605,161.281 317.603 C 160.995 317.602,160.345 317.150,159.835 316.600 C 159.325 316.050,158.633 315.600,158.297 315.600 C 157.961 315.600,157.582 315.330,157.455 315.000 C 157.329 314.670,156.949 314.400,156.613 314.400 C 156.276 314.400,156.000 314.220,156.000 314.000 C 156.000 313.780,155.744 313.600,155.432 313.600 C 155.119 313.600,154.165 312.925,153.312 312.100 C 152.459 311.275,151.499 310.541,151.180 310.470 C 150.861 310.398,150.540 310.173,150.467 309.970 C 150.393 309.766,150.078 309.600,149.767 309.600 C 149.455 309.600,149.200 309.420,149.200 309.200 C 149.200 308.980,148.938 308.800,148.618 308.800 C 148.298 308.800,147.586 308.350,147.036 307.800 C 146.486 307.250,145.876 306.800,145.680 306.800 C 145.485 306.800,144.801 306.350,144.162 305.800 C 143.523 305.251,142.865 304.801,142.700 304.800 C 142.535 304.800,142.400 304.530,142.400 304.200 C 142.400 303.862,142.042 303.600,141.581 303.600 C 141.130 303.600,140.345 303.150,139.835 302.600 C 139.325 302.050,138.720 301.600,138.490 301.600 C 138.260 301.600,136.931 300.520,135.536 299.201 C 134.141 297.881,132.865 296.801,132.700 296.801 C 132.535 296.800,132.400 296.642,132.400 296.448 C 132.400 296.255,131.725 295.368,130.900 294.477 C 128.810 292.220,128.400 291.691,128.400 291.246 C 128.400 291.033,127.950 290.504,127.400 290.071 C 126.850 289.639,126.400 288.925,126.400 288.485 C 126.400 288.045,126.130 287.582,125.800 287.455 C 125.470 287.329,125.200 286.949,125.200 286.613 C 125.200 286.276,125.020 286.000,124.800 286.000 C 124.580 286.000,124.400 285.736,124.400 285.414 C 124.400 285.092,123.950 284.022,123.400 283.037 C 122.850 282.052,122.400 280.876,122.400 280.423 C 122.400 279.970,122.220 279.600,122.000 279.600 C 121.780 279.600,121.600 279.184,121.600 278.676 C 121.600 278.169,121.336 277.404,121.013 276.976 C 120.690 276.549,120.420 275.435,120.413 274.500 C 120.406 273.565,120.220 272.800,120.000 272.800 C 119.761 272.800,119.600 271.262,119.600 268.987 C 119.600 265.968,119.475 265.127,119.000 264.945 C 118.210 264.642,118.219 261.673,119.013 260.624 C 119.420 260.086,119.600 258.827,119.600 256.524 C 119.600 254.575,119.765 253.200,120.000 253.200 C 120.220 253.200,120.400 252.377,120.400 251.371 C 120.400 250.279,120.642 249.301,121.000 248.943 C 121.330 248.613,121.600 247.916,121.600 247.395 C 121.600 246.874,121.780 246.336,122.000 246.200 C 122.220 246.064,122.400 245.618,122.400 245.210 C 122.400 244.801,122.535 244.407,122.700 244.333 C 123.135 244.140,124.400 241.635,124.400 240.968 C 124.400 240.655,124.577 240.400,124.792 240.400 C 125.008 240.400,125.298 239.950,125.436 239.400 C 125.574 238.850,125.847 238.400,126.043 238.400 C 126.240 238.400,126.400 238.173,126.400 237.895 C 126.400 237.617,126.850 237.052,127.400 236.639 C 127.950 236.226,128.400 235.649,128.400 235.358 C 128.400 234.707,130.064 232.979,132.200 231.413 C 133.080 230.768,134.181 229.826,134.647 229.320 C 135.112 228.814,135.697 228.400,135.947 228.400 C 136.196 228.400,136.400 228.220,136.400 228.000 C 136.400 227.780,136.676 227.600,137.013 227.600 C 137.349 227.600,137.729 227.330,137.855 227.000 C 137.982 226.670,138.336 226.400,138.643 226.400 C 138.949 226.400,139.200 226.223,139.200 226.008 C 139.200 225.792,139.650 225.502,140.200 225.364 C 140.750 225.226,141.200 224.953,141.200 224.757 C 141.200 224.092,142.543 224.395,143.474 225.270 " stroke="none" fill="#7c7c7c" fill-rule="evenodd"></path><path id="path4" d="M195.525 58.790 C 191.704 60.244,190.182 61.575,185.903 67.200 C 184.648 68.850,183.474 70.380,183.295 70.600 C 183.115 70.820,180.864 73.970,178.291 77.600 C 175.719 81.230,173.432 84.417,173.207 84.683 C 172.983 84.949,172.800 85.339,172.800 85.550 C 172.800 85.761,172.665 85.993,172.500 86.067 C 172.065 86.260,169.600 89.953,169.600 90.412 C 169.600 90.625,169.420 90.800,169.200 90.800 C 168.980 90.800,168.800 91.070,168.800 91.400 C 168.800 91.730,168.649 92.000,168.464 92.000 C 168.280 92.000,167.921 92.405,167.667 92.900 C 167.027 94.147,166.021 95.806,164.282 98.481 C 163.467 99.735,162.800 100.950,162.800 101.181 C 162.800 101.411,162.620 101.600,162.400 101.600 C 162.180 101.600,162.000 101.802,162.000 102.049 C 162.000 102.359,162.185 102.344,162.600 102.000 C 162.930 101.726,163.200 101.349,163.200 101.163 C 163.200 100.976,164.100 99.497,165.200 97.876 C 166.300 96.255,167.200 94.720,167.200 94.464 C 167.200 94.209,167.380 94.000,167.600 94.000 C 167.820 94.000,168.000 93.841,168.000 93.646 C 168.000 93.193,171.271 88.244,171.687 88.067 C 171.859 87.993,172.000 87.786,172.000 87.607 C 172.000 87.201,173.922 84.351,176.914 80.321 C 178.171 78.628,179.200 77.143,179.200 77.022 C 179.200 76.901,180.325 75.283,181.700 73.427 C 183.075 71.570,184.730 69.320,185.377 68.426 C 186.024 67.531,186.699 66.800,186.877 66.800 C 187.055 66.800,187.201 66.575,187.203 66.300 C 187.216 64.368,193.238 59.856,197.400 58.659 C 198.621 58.307,199.010 58.082,198.400 58.080 C 197.850 58.078,196.556 58.397,195.525 58.790 M259.200 58.400 C 259.530 58.613,260.070 58.792,260.400 58.796 C 260.730 58.801,261.483 59.057,262.073 59.365 C 262.994 59.845,263.115 59.845,262.930 59.362 C 262.811 59.053,262.384 58.800,261.981 58.800 C 261.577 58.800,261.136 58.620,261.000 58.400 C 260.864 58.180,260.268 58.003,259.676 58.006 C 258.834 58.011,258.731 58.097,259.200 58.400 M264.401 61.000 C 264.951 61.660,265.445 62.275,265.500 62.367 C 265.555 62.458,265.688 62.445,265.796 62.338 C 265.904 62.230,265.409 61.615,264.697 60.971 L 263.403 59.800 264.401 61.000 M266.000 63.244 C 266.000 63.572,266.163 64.011,266.361 64.220 C 266.560 64.429,266.809 64.960,266.915 65.400 C 267.072 66.052,267.113 66.015,267.141 65.200 C 267.159 64.650,266.910 63.851,266.587 63.424 C 266.147 62.842,266.000 62.797,266.000 63.244 M266.846 70.300 C 266.821 70.795,266.620 71.200,266.400 71.200 C 266.180 71.200,266.000 71.510,266.000 71.889 C 266.000 72.453,266.114 72.415,266.628 71.682 C 266.973 71.189,267.174 70.473,267.074 70.093 C 266.940 69.580,266.881 69.634,266.846 70.300 M251.700 86.658 C 243.528 94.890,238.000 100.760,238.000 101.206 C 238.000 101.616,239.080 103.683,240.400 105.800 C 241.720 107.917,242.800 109.795,242.800 109.975 C 242.800 110.155,243.086 110.540,243.436 110.830 C 244.065 111.352,242.586 108.422,241.200 106.400 C 240.013 104.669,238.400 101.593,238.400 101.061 C 238.400 100.780,240.155 98.817,242.300 96.698 C 253.896 85.246,266.144 72.804,265.797 72.828 C 265.579 72.844,259.235 79.067,251.700 86.658 M161.273 103.287 C 161.013 103.547,160.800 103.994,160.800 104.280 C 160.800 104.566,160.620 104.800,160.400 104.800 C 160.180 104.800,160.000 105.043,160.000 105.340 C 160.000 105.637,159.460 106.625,158.800 107.537 C 158.140 108.448,157.600 109.375,157.600 109.597 C 157.600 109.818,157.420 110.000,157.200 110.000 C 156.980 110.000,156.800 110.360,156.800 110.800 C 156.800 111.240,156.640 111.600,156.443 111.600 C 156.247 111.600,155.974 112.050,155.836 112.600 C 155.698 113.150,155.408 113.600,155.192 113.600 C 154.977 113.600,154.800 113.784,154.800 114.008 C 154.800 114.232,154.350 115.129,153.800 116.000 C 153.250 116.871,152.800 117.858,152.800 118.192 C 152.800 118.526,152.632 118.800,152.427 118.800 C 152.222 118.800,151.928 119.205,151.773 119.700 C 151.619 120.195,151.381 120.690,151.246 120.800 C 150.791 121.170,149.943 122.876,150.124 123.057 C 150.320 123.254,151.693 120.999,153.832 116.967 C 154.593 115.534,155.661 113.653,156.207 112.788 C 156.753 111.924,157.200 111.133,157.200 111.032 C 157.200 110.931,158.287 109.105,159.616 106.974 C 161.864 103.370,162.414 102.146,161.273 103.287 M244.042 111.800 C 244.051 112.020,244.399 112.740,244.815 113.400 C 245.232 114.060,245.938 115.354,246.385 116.276 C 247.098 117.745,248.000 118.841,248.000 118.238 C 248.000 117.812,245.867 114.195,245.539 114.067 C 245.353 113.993,245.200 113.713,245.200 113.443 C 245.200 113.174,244.936 112.604,244.613 112.176 C 244.290 111.749,244.033 111.580,244.042 111.800 M248.798 120.397 C 249.270 121.321,249.734 121.999,249.830 121.904 C 250.063 121.671,248.855 119.281,248.345 118.966 C 248.123 118.829,248.327 119.473,248.798 120.397 M250.001 122.624 C 250.002 122.831,250.632 124.044,251.401 125.320 C 252.170 126.596,252.800 127.879,252.800 128.171 C 252.800 128.463,253.099 128.949,253.465 129.251 C 254.218 129.872,254.184 129.759,252.800 126.996 C 252.250 125.898,251.665 124.940,251.500 124.867 C 251.335 124.793,251.194 124.523,251.187 124.267 C 251.172 123.707,250.000 122.083,250.001 122.624 M149.221 124.701 C 148.938 125.305,148.534 126.134,148.324 126.542 C 148.064 127.046,148.075 127.201,148.360 127.025 C 148.886 126.700,150.169 124.036,149.920 123.786 C 149.818 123.684,149.503 124.096,149.221 124.701 M147.273 128.087 C 147.013 128.347,146.800 128.848,146.800 129.200 C 146.800 129.552,146.587 130.053,146.327 130.313 C 146.066 130.574,145.964 130.897,146.099 131.032 C 146.234 131.167,146.715 130.509,147.169 129.569 C 148.034 127.779,148.068 127.292,147.273 128.087 M254.000 130.058 C 254.000 130.543,255.678 133.655,255.848 133.486 C 255.953 133.380,255.651 132.598,255.177 131.747 C 254.277 130.133,254.000 129.736,254.000 130.058 M145.273 132.087 C 145.013 132.347,144.800 132.848,144.800 133.200 C 144.800 133.552,144.587 134.053,144.327 134.313 C 144.066 134.574,143.964 134.897,144.099 135.032 C 144.234 135.167,144.715 134.509,145.169 133.569 C 146.034 131.779,146.068 131.292,145.273 132.087 M256.000 134.129 C 256.000 134.284,256.165 134.723,256.366 135.105 C 256.916 136.147,258.000 138.690,258.000 138.938 C 258.000 139.057,258.382 139.802,258.850 140.594 C 260.272 143.005,260.098 141.901,258.603 139.034 C 257.832 137.553,257.194 136.130,257.187 135.871 C 257.174 135.371,256.000 133.649,256.000 134.129 M142.890 137.208 C 141.664 139.505,141.773 140.214,143.017 138.037 C 143.571 137.068,143.970 136.109,143.903 135.908 C 143.835 135.706,143.380 136.291,142.890 137.208 M141.273 140.487 C 141.013 140.747,140.800 141.359,140.800 141.847 C 140.800 142.334,140.665 142.793,140.500 142.867 C 140.102 143.044,138.800 145.540,138.800 146.127 C 138.800 146.521,137.582 149.295,136.355 151.695 C 135.898 152.588,135.899 153.310,136.356 153.027 C 136.551 152.906,136.834 152.318,136.984 151.720 C 137.134 151.122,137.717 149.635,138.279 148.416 C 138.840 147.197,139.743 145.210,140.286 144.000 C 140.828 142.790,141.448 141.467,141.663 141.061 C 142.140 140.162,141.921 139.839,141.273 140.487 M260.009 142.705 C 260.004 142.983,260.160 143.523,260.356 143.905 C 260.732 144.640,261.497 146.358,262.623 149.000 C 262.998 149.880,263.642 151.309,264.053 152.175 C 264.464 153.041,264.806 154.031,264.813 154.375 C 264.831 155.285,266.000 156.786,266.000 155.900 C 266.000 155.541,265.820 155.136,265.600 155.000 C 265.380 154.864,265.200 154.313,265.200 153.776 C 265.200 153.239,265.020 152.800,264.800 152.800 C 264.580 152.800,264.400 152.610,264.400 152.378 C 264.400 151.986,264.055 151.154,261.924 146.400 C 260.239 142.640,260.018 142.214,260.009 142.705 M135.285 154.413 C 135.018 154.840,134.800 155.541,134.800 155.971 C 134.800 156.401,134.620 156.864,134.400 157.000 C 134.180 157.136,134.012 157.552,134.026 157.924 C 134.040 158.296,134.334 157.970,134.680 157.200 C 135.026 156.430,135.495 155.395,135.722 154.901 C 136.249 153.752,135.924 153.389,135.285 154.413 M266.021 157.305 C 266.009 157.693,266.161 158.323,266.357 158.705 C 266.553 159.087,266.920 159.918,267.172 160.552 C 267.424 161.185,267.726 161.608,267.843 161.491 C 267.960 161.374,267.876 160.945,267.657 160.539 C 267.439 160.133,266.985 159.080,266.650 158.200 C 266.315 157.320,266.032 156.917,266.021 157.305 M133.285 159.613 C 133.018 160.040,132.800 160.741,132.800 161.171 C 132.800 161.601,132.620 162.064,132.400 162.200 C 132.180 162.336,132.012 162.752,132.026 163.124 C 132.040 163.496,132.334 163.170,132.680 162.400 C 133.026 161.630,133.495 160.595,133.722 160.101 C 134.249 158.952,133.924 158.589,133.285 159.613 M268.190 163.000 C 268.353 163.440,268.664 164.430,268.881 165.200 C 269.333 166.808,270.000 167.704,270.000 166.704 C 270.000 166.343,269.820 165.936,269.600 165.800 C 269.380 165.664,269.194 165.158,269.187 164.676 C 269.180 164.194,268.886 163.440,268.533 163.000 L 267.892 162.200 268.190 163.000 M131.300 165.085 C 131.025 165.676,130.800 166.563,130.800 167.056 C 130.800 167.549,130.620 168.064,130.400 168.200 C 130.180 168.336,130.006 168.662,130.013 168.924 C 130.035 169.764,131.200 167.880,131.200 167.004 C 131.200 166.540,131.397 165.963,131.638 165.722 C 131.878 165.482,132.013 164.998,131.938 164.648 C 131.839 164.190,131.659 164.312,131.300 165.085 M270.014 168.620 C 270.006 169.071,270.150 169.611,270.333 169.820 C 270.515 170.029,270.907 171.010,271.203 172.000 C 271.560 173.191,271.798 173.549,271.908 173.058 C 272.000 172.649,271.878 172.118,271.638 171.878 C 271.397 171.637,271.194 171.071,271.186 170.620 C 271.165 169.417,270.034 167.486,270.014 168.620 M129.300 171.085 C 129.025 171.676,128.800 172.563,128.800 173.056 C 128.800 173.549,128.620 174.064,128.400 174.200 C 128.180 174.336,128.006 174.842,128.014 175.324 C 128.035 176.639,129.167 174.570,129.186 173.180 C 129.194 172.619,129.397 171.963,129.638 171.722 C 129.878 171.482,130.013 170.998,129.938 170.648 C 129.839 170.190,129.659 170.312,129.300 171.085 M272.002 175.076 C 272.001 175.558,272.180 176.064,272.400 176.200 C 272.620 176.336,272.800 176.866,272.800 177.378 C 272.800 178.657,273.962 181.352,273.984 180.124 C 273.993 179.642,273.820 179.136,273.600 179.000 C 273.380 178.864,273.200 178.244,273.200 177.622 C 273.200 177.000,272.931 175.976,272.602 175.346 C 272.069 174.323,272.005 174.294,272.002 175.076 M127.654 177.076 C 127.625 177.558,127.420 178.064,127.200 178.200 C 126.980 178.336,126.800 179.056,126.800 179.800 C 126.800 180.544,126.620 181.264,126.400 181.400 C 126.180 181.536,126.006 181.952,126.014 182.324 C 126.037 183.428,127.169 181.164,127.186 179.980 C 127.194 179.419,127.395 178.765,127.634 178.526 C 127.872 178.288,127.987 177.667,127.888 177.146 C 127.719 176.252,127.706 176.248,127.654 177.076 M274.046 182.076 C 274.021 182.668,274.180 183.264,274.400 183.400 C 274.620 183.536,274.803 184.132,274.806 184.724 C 274.816 186.497,275.939 189.767,275.973 188.124 C 275.988 187.422,275.820 186.736,275.600 186.600 C 275.380 186.464,275.200 185.679,275.200 184.856 C 275.200 184.033,275.037 183.189,274.839 182.980 C 274.640 182.771,274.391 182.240,274.285 181.800 C 274.137 181.183,274.082 181.247,274.046 182.076 M125.469 184.600 C 125.179 185.693,124.848 187.290,124.223 190.600 L 123.997 191.800 124.580 190.600 C 124.901 189.940,125.172 188.893,125.182 188.274 C 125.192 187.654,125.391 186.790,125.625 186.354 C 125.858 185.918,125.990 185.074,125.918 184.480 L 125.787 183.400 125.469 184.600 M194.876 189.899 C 197.668 189.967,202.348 189.968,205.276 189.899 C 208.204 189.831,205.920 189.775,200.200 189.774 C 194.480 189.774,192.084 189.830,194.876 189.899 M276.219 190.800 C 276.335 191.570,276.596 193.329,276.800 194.710 C 277.004 196.090,277.370 197.530,277.612 197.910 C 277.959 198.453,277.994 198.301,277.776 197.200 C 277.624 196.430,277.361 194.900,277.192 193.800 C 277.023 192.700,276.688 191.260,276.446 190.600 L 276.008 189.400 276.219 190.800 M182.600 190.400 C 182.160 190.589,180.540 190.765,179.000 190.790 C 177.456 190.815,175.662 191.098,175.000 191.420 L 173.800 192.003 175.000 191.785 C 175.660 191.665,177.820 191.396,179.800 191.186 C 181.780 190.977,184.660 190.648,186.200 190.455 L 189.000 190.105 186.200 190.081 C 184.660 190.067,183.040 190.211,182.600 190.400 M214.800 190.432 C 216.230 190.642,218.840 190.985,220.600 191.195 C 222.360 191.404,224.520 191.673,225.400 191.792 C 226.814 191.983,226.884 191.956,226.000 191.567 C 224.959 191.107,219.823 190.472,215.000 190.205 L 212.200 190.051 214.800 190.432 M169.800 192.400 C 169.664 192.620,168.888 192.814,168.076 192.830 C 167.264 192.847,165.970 193.117,165.200 193.431 L 163.800 194.001 165.200 193.785 C 167.834 193.380,170.200 192.879,171.400 192.474 L 172.600 192.069 171.324 192.034 C 170.622 192.015,169.936 192.180,169.800 192.400 M228.800 192.462 C 229.790 192.662,231.410 192.988,232.400 193.188 C 233.390 193.387,234.740 193.653,235.400 193.777 L 236.600 194.003 235.400 193.420 C 234.740 193.099,233.536 192.828,232.724 192.818 C 231.912 192.808,231.136 192.620,231.000 192.400 C 230.864 192.180,229.908 192.023,228.876 192.050 L 227.000 192.100 228.800 192.462 M123.479 194.000 C 123.327 194.770,123.026 196.480,122.809 197.800 C 122.593 199.120,122.311 200.740,122.184 201.400 C 121.993 202.382,122.032 202.474,122.394 201.902 C 122.638 201.519,122.928 200.259,123.039 199.102 C 123.150 197.946,123.431 196.355,123.663 195.566 C 123.894 194.778,124.010 193.788,123.919 193.366 C 123.806 192.841,123.668 193.040,123.479 194.000 M161.800 194.400 C 161.664 194.620,161.068 194.806,160.476 194.814 C 159.256 194.830,156.938 195.962,158.076 195.986 C 158.448 195.994,158.864 195.820,159.000 195.600 C 159.136 195.380,159.732 195.194,160.324 195.186 C 161.544 195.170,163.862 194.038,162.724 194.014 C 162.352 194.006,161.936 194.180,161.800 194.400 M238.346 194.616 C 239.086 194.937,239.995 195.200,240.366 195.200 C 240.737 195.200,241.237 195.397,241.478 195.638 C 241.718 195.878,242.236 196.013,242.628 195.938 C 243.020 195.862,242.160 195.395,240.718 194.900 C 237.790 193.895,236.266 193.713,238.346 194.616 M155.400 196.400 C 155.264 196.620,154.866 196.800,154.515 196.800 C 154.164 196.800,152.690 197.362,151.239 198.049 C 149.787 198.736,147.700 199.719,146.600 200.233 C 143.726 201.577,141.278 203.173,142.067 203.188 C 142.433 203.194,142.793 203.050,142.867 202.868 C 142.940 202.685,145.160 201.499,147.800 200.232 C 152.765 197.848,153.126 197.687,155.800 196.657 C 156.920 196.226,157.137 196.035,156.524 196.021 C 156.042 196.009,155.536 196.180,155.400 196.400 M244.224 196.587 C 244.651 196.910,245.484 197.180,246.076 197.187 C 246.668 197.194,247.264 197.380,247.400 197.600 C 247.536 197.820,247.862 197.994,248.124 197.987 C 248.998 197.964,247.061 196.800,246.147 196.800 C 245.652 196.800,245.136 196.620,245.000 196.400 C 244.864 196.180,244.459 196.000,244.100 196.000 C 243.552 196.000,243.572 196.095,244.224 196.587 M253.728 200.597 C 256.548 202.020,259.425 203.593,260.122 204.092 C 261.993 205.433,263.200 206.010,263.200 205.564 C 263.200 205.350,262.885 205.061,262.500 204.922 C 262.115 204.783,261.262 204.294,260.604 203.835 C 259.021 202.730,249.657 197.999,249.064 198.004 C 248.809 198.007,250.907 199.173,253.728 200.597 M278.062 200.800 C 278.035 202.010,278.287 203.720,278.623 204.600 L 279.234 206.200 278.980 204.400 C 278.840 203.410,278.588 201.700,278.419 200.600 L 278.113 198.600 278.062 200.800 M121.731 205.800 C 121.733 207.340,121.805 207.921,121.892 207.091 C 121.979 206.261,121.977 205.001,121.889 204.291 C 121.800 203.581,121.729 204.260,121.731 205.800 M138.700 204.664 C 138.095 204.983,137.600 205.426,137.600 205.649 C 137.600 205.872,138.140 205.670,138.800 205.200 C 139.460 204.730,140.000 204.268,140.000 204.173 C 140.000 203.968,140.078 203.939,138.700 204.664 M135.189 207.177 C 134.425 207.825,132.734 209.175,131.430 210.177 C 130.127 211.180,129.211 212.000,129.396 212.000 C 129.887 212.000,135.200 207.901,135.200 207.522 C 135.200 207.345,135.448 207.200,135.751 207.200 C 136.054 207.200,136.526 206.930,136.800 206.600 C 137.646 205.581,136.652 205.937,135.189 207.177 M264.225 206.686 C 264.679 207.079,265.731 207.940,266.563 208.600 C 267.395 209.260,268.631 210.295,269.310 210.900 C 269.989 211.505,270.737 211.994,270.972 211.987 C 271.207 211.979,270.950 211.609,270.400 211.164 C 269.850 210.719,268.599 209.690,267.619 208.878 C 265.691 207.278,262.609 205.288,264.225 206.686 M278.426 208.500 C 278.113 209.215,277.304 210.292,276.628 210.894 C 275.953 211.495,275.611 211.990,275.869 211.994 C 276.557 212.003,279.200 208.778,279.200 207.928 C 279.200 206.918,279.080 207.006,278.426 208.500 M122.000 209.108 C 122.000 209.642,124.442 212.003,124.976 211.987 C 125.209 211.979,124.950 211.611,124.400 211.167 C 123.850 210.724,123.085 209.990,122.700 209.536 C 122.315 209.083,122.000 208.890,122.000 209.108 M126.300 212.282 C 126.795 212.378,127.605 212.378,128.100 212.282 C 128.595 212.187,128.190 212.109,127.200 212.109 C 126.210 212.109,125.805 212.187,126.300 212.282 M272.300 212.282 C 272.795 212.378,273.605 212.378,274.100 212.282 C 274.595 212.187,274.190 212.109,273.200 212.109 C 272.210 212.109,271.805 212.187,272.300 212.282 " stroke="none" fill="#aaaaaa" fill-rule="evenodd"></path></g></svg>